<svg xmlns="http://www.w3.org/2000/svg" xmlns:xlink="http://www.w3.org/1999/xlink" width="1000" zoomAndPan="magnify" viewBox="0 0 750 749.999995" height="1000" preserveAspectRatio="xMidYMid meet" version="1.0"><defs><g/><clipPath id="bdef050d86"><path d="M 336.925781 342.246094 L 408.925781 342.246094 L 408.925781 414.246094 L 336.925781 414.246094 Z M 336.925781 342.246094 " clip-rule="nonzero"/></clipPath><clipPath id="b7c088b702"><path d="M 510 322.65625 L 650 322.65625 L 650 436 L 510 436 Z M 510 322.65625 " clip-rule="nonzero"/></clipPath><clipPath id="be39762803"><path d="M 635 341 L 748.058594 341 L 748.058594 352 L 635 352 Z M 635 341 " clip-rule="nonzero"/></clipPath><clipPath id="5a073cca1f"><path d="M 406.304688 373 L 520 373 L 520 385 L 406.304688 385 Z M 406.304688 373 " clip-rule="nonzero"/></clipPath><clipPath id="c4975b7a7a"><path d="M 461 469 L 605 469 L 605 609 L 461 609 Z M 461 469 " clip-rule="nonzero"/></clipPath><clipPath id="9625026b63"><path d="M 443.976562 356.453125 L 678.917969 600.832031 L 589.167969 687.117188 L 354.226562 442.734375 Z M 443.976562 356.453125 " clip-rule="nonzero"/></clipPath><clipPath id="be0e3458c1"><path d="M 679.082031 601.003906 L 444.140625 356.621094 L 354.386719 442.90625 L 589.332031 687.285156 Z M 679.082031 601.003906 " clip-rule="nonzero"/></clipPath><clipPath id="d0e5289fc6"><path d="M 679.082031 601.003906 L 444.140625 356.621094 L 354.386719 442.90625 L 589.332031 687.285156 Z M 679.082031 601.003906 " clip-rule="nonzero"/></clipPath><clipPath id="afe9acfa52"><path d="M 536 547 L 631 547 L 631 635 L 536 635 Z M 536 547 " clip-rule="nonzero"/></clipPath><clipPath id="2b29c0b0fd"><path d="M 443.976562 356.453125 L 678.917969 600.832031 L 589.167969 687.117188 L 354.226562 442.734375 Z M 443.976562 356.453125 " clip-rule="nonzero"/></clipPath><clipPath id="c1f83d2c62"><path d="M 679.082031 601.003906 L 444.140625 356.621094 L 354.386719 442.90625 L 589.332031 687.285156 Z M 679.082031 601.003906 " clip-rule="nonzero"/></clipPath><clipPath id="4af15925ef"><path d="M 679.082031 601.003906 L 444.140625 356.621094 L 354.386719 442.90625 L 589.332031 687.285156 Z M 679.082031 601.003906 " clip-rule="nonzero"/></clipPath><clipPath id="96a426296c"><path d="M 578 539 L 659 539 L 659 624 L 578 624 Z M 578 539 " clip-rule="nonzero"/></clipPath><clipPath id="e22e91992a"><path d="M 443.976562 356.453125 L 678.917969 600.832031 L 589.167969 687.117188 L 354.226562 442.734375 Z M 443.976562 356.453125 " clip-rule="nonzero"/></clipPath><clipPath id="22b4c00107"><path d="M 679.082031 601.003906 L 444.140625 356.621094 L 354.386719 442.90625 L 589.332031 687.285156 Z M 679.082031 601.003906 " clip-rule="nonzero"/></clipPath><clipPath id="186289cb4d"><path d="M 679.082031 601.003906 L 444.140625 356.621094 L 354.386719 442.90625 L 589.332031 687.285156 Z M 679.082031 601.003906 " clip-rule="nonzero"/></clipPath><clipPath id="111798ca3b"><path d="M 397 398 L 479 398 L 479 482 L 397 482 Z M 397 398 " clip-rule="nonzero"/></clipPath><clipPath id="e4c5cb17cd"><path d="M 443.976562 356.453125 L 678.917969 600.832031 L 589.167969 687.117188 L 354.226562 442.734375 Z M 443.976562 356.453125 " clip-rule="nonzero"/></clipPath><clipPath id="54cfdebdf9"><path d="M 679.082031 601.003906 L 444.140625 356.621094 L 354.386719 442.90625 L 589.332031 687.285156 Z M 679.082031 601.003906 " clip-rule="nonzero"/></clipPath><clipPath id="641f930e38"><path d="M 679.082031 601.003906 L 444.140625 356.621094 L 354.386719 442.90625 L 589.332031 687.285156 Z M 679.082031 601.003906 " clip-rule="nonzero"/></clipPath><clipPath id="fec61341a2"><path d="M 533 581 L 615 581 L 615 666 L 533 666 Z M 533 581 " clip-rule="nonzero"/></clipPath><clipPath id="b80496014e"><path d="M 443.976562 356.453125 L 678.917969 600.832031 L 589.167969 687.117188 L 354.226562 442.734375 Z M 443.976562 356.453125 " clip-rule="nonzero"/></clipPath><clipPath id="f6a6cfd68a"><path d="M 679.082031 601.003906 L 444.140625 356.621094 L 354.386719 442.90625 L 589.332031 687.285156 Z M 679.082031 601.003906 " clip-rule="nonzero"/></clipPath><clipPath id="c070ced1b9"><path d="M 679.082031 601.003906 L 444.140625 356.621094 L 354.386719 442.90625 L 589.332031 687.285156 Z M 679.082031 601.003906 " clip-rule="nonzero"/></clipPath><clipPath id="0e08db92f1"><path d="M 97 323.097656 L 236 323.097656 L 236 436 L 97 436 Z M 97 323.097656 " clip-rule="nonzero"/></clipPath><clipPath id="e4adf83b03"><path d="M 310.289062 538 L 435.539062 538 L 435.539062 647 L 310.289062 647 Z M 310.289062 538 " clip-rule="nonzero"/></clipPath><clipPath id="d261de3117"><path d="M 369 411.917969 L 377 411.917969 L 377 524 L 369 524 Z M 369 411.917969 " clip-rule="nonzero"/></clipPath><clipPath id="e112c8c7d7"><path d="M 142 147 L 282 147 L 282 291 L 142 291 Z M 142 147 " clip-rule="nonzero"/></clipPath><clipPath id="3c2e3aa8b0"><path d="M 149.390625 72.921875 L 394.800781 306.789062 L 308.910156 396.917969 L 63.5 163.046875 Z M 149.390625 72.921875 " clip-rule="nonzero"/></clipPath><clipPath id="1cf08f216e"><path d="M 149.390625 72.921875 L 394.800781 306.789062 L 308.910156 396.917969 L 63.5 163.046875 Z M 149.390625 72.921875 " clip-rule="nonzero"/></clipPath><clipPath id="610e87f756"><path d="M 149.390625 72.921875 L 394.800781 306.789062 L 308.910156 396.917969 L 63.5 163.046875 Z M 149.390625 72.921875 " clip-rule="nonzero"/></clipPath><clipPath id="7b25445fc6"><path d="M 116 121 L 204 121 L 204 216 L 116 216 Z M 116 121 " clip-rule="nonzero"/></clipPath><clipPath id="dbdeb366fb"><path d="M 149.390625 72.921875 L 394.800781 306.789062 L 308.910156 396.917969 L 63.5 163.046875 Z M 149.390625 72.921875 " clip-rule="nonzero"/></clipPath><clipPath id="bad4fc773b"><path d="M 149.390625 72.921875 L 394.800781 306.789062 L 308.910156 396.917969 L 63.5 163.046875 Z M 149.390625 72.921875 " clip-rule="nonzero"/></clipPath><clipPath id="a5e5bf1f17"><path d="M 149.390625 72.921875 L 394.800781 306.789062 L 308.910156 396.917969 L 63.5 163.046875 Z M 149.390625 72.921875 " clip-rule="nonzero"/></clipPath><clipPath id="8fd67a6914"><path d="M 127 93 L 211 93 L 211 174 L 127 174 Z M 127 93 " clip-rule="nonzero"/></clipPath><clipPath id="db985da295"><path d="M 149.390625 72.921875 L 394.800781 306.789062 L 308.910156 396.917969 L 63.5 163.046875 Z M 149.390625 72.921875 " clip-rule="nonzero"/></clipPath><clipPath id="8c4ceb51b4"><path d="M 149.390625 72.921875 L 394.800781 306.789062 L 308.910156 396.917969 L 63.5 163.046875 Z M 149.390625 72.921875 " clip-rule="nonzero"/></clipPath><clipPath id="3579091ad2"><path d="M 149.390625 72.921875 L 394.800781 306.789062 L 308.910156 396.917969 L 63.5 163.046875 Z M 149.390625 72.921875 " clip-rule="nonzero"/></clipPath><clipPath id="97dc10b08b"><path d="M 269 273 L 354 273 L 354 354 L 269 354 Z M 269 273 " clip-rule="nonzero"/></clipPath><clipPath id="6b0fefae33"><path d="M 149.390625 72.921875 L 394.800781 306.789062 L 308.910156 396.917969 L 63.5 163.046875 Z M 149.390625 72.921875 " clip-rule="nonzero"/></clipPath><clipPath id="8769062f8b"><path d="M 149.390625 72.921875 L 394.800781 306.789062 L 308.910156 396.917969 L 63.5 163.046875 Z M 149.390625 72.921875 " clip-rule="nonzero"/></clipPath><clipPath id="86edf8b798"><path d="M 149.390625 72.921875 L 394.800781 306.789062 L 308.910156 396.917969 L 63.5 163.046875 Z M 149.390625 72.921875 " clip-rule="nonzero"/></clipPath><clipPath id="b9c56963ca"><path d="M 85 138 L 170 138 L 170 219 L 85 219 Z M 85 138 " clip-rule="nonzero"/></clipPath><clipPath id="d4f4c42ffe"><path d="M 149.390625 72.921875 L 394.800781 306.789062 L 308.910156 396.917969 L 63.5 163.046875 Z M 149.390625 72.921875 " clip-rule="nonzero"/></clipPath><clipPath id="2bcf13c171"><path d="M 149.390625 72.921875 L 394.800781 306.789062 L 308.910156 396.917969 L 63.5 163.046875 Z M 149.390625 72.921875 " clip-rule="nonzero"/></clipPath><clipPath id="649e95a3e3"><path d="M 149.390625 72.921875 L 394.800781 306.789062 L 308.910156 396.917969 L 63.5 163.046875 Z M 149.390625 72.921875 " clip-rule="nonzero"/></clipPath><clipPath id="ac4bf80a68"><path d="M 230.777344 364.566406 L 262.078125 364.566406 L 262.078125 395.867188 L 230.777344 395.867188 Z M 230.777344 364.566406 " clip-rule="nonzero"/></clipPath><clipPath id="ce2980eea6"><path d="M 246.425781 364.566406 C 237.78125 364.566406 230.777344 371.574219 230.777344 380.214844 C 230.777344 388.859375 237.78125 395.867188 246.425781 395.867188 C 255.070312 395.867188 262.078125 388.859375 262.078125 380.214844 C 262.078125 371.574219 255.070312 364.566406 246.425781 364.566406 Z M 246.425781 364.566406 " clip-rule="nonzero"/></clipPath><clipPath id="f20755a7c4"><path d="M 267.800781 272.304688 L 299.101562 272.304688 L 299.101562 303.605469 L 267.800781 303.605469 Z M 267.800781 272.304688 " clip-rule="nonzero"/></clipPath><clipPath id="24aebfb8dc"><path d="M 283.449219 272.304688 C 274.804688 272.304688 267.800781 279.3125 267.800781 287.957031 C 267.800781 296.597656 274.804688 303.605469 283.449219 303.605469 C 292.09375 303.605469 299.101562 296.597656 299.101562 287.957031 C 299.101562 279.3125 292.09375 272.304688 283.449219 272.304688 Z M 283.449219 272.304688 " clip-rule="nonzero"/></clipPath><clipPath id="81905fc451"><path d="M 357.347656 515.210938 L 388.648438 515.210938 L 388.648438 546.511719 L 357.347656 546.511719 Z M 357.347656 515.210938 " clip-rule="nonzero"/></clipPath><clipPath id="8257efd746"><path d="M 372.996094 515.210938 C 364.355469 515.210938 357.347656 522.214844 357.347656 530.859375 C 357.347656 539.503906 364.355469 546.511719 372.996094 546.511719 C 381.640625 546.511719 388.648438 539.503906 388.648438 530.859375 C 388.648438 522.214844 381.640625 515.210938 372.996094 515.210938 Z M 372.996094 515.210938 " clip-rule="nonzero"/></clipPath><clipPath id="00f453f995"><path d="M 310.285156 93.652344 L 435.535156 93.652344 L 435.535156 224.152344 L 310.285156 224.152344 Z M 310.285156 93.652344 " clip-rule="nonzero"/></clipPath><clipPath id="f7452d162a"><path d="M 372.992188 224.152344 L 310.449219 93.339844 L 435.535156 93.339844 Z M 372.992188 224.152344 " clip-rule="nonzero"/></clipPath><clipPath id="d8632ad7e3"><path d="M 450 138 L 603 138 L 603 294 L 450 294 Z M 450 138 " clip-rule="nonzero"/></clipPath><clipPath id="4050ef3230"><path d="M 346.769531 303.066406 L 588.070312 61.765625 L 680.878906 154.574219 L 439.578125 395.871094 Z M 346.769531 303.066406 " clip-rule="nonzero"/></clipPath><clipPath id="e8a043ade7"><path d="M 587.8125 62.019531 L 346.511719 303.320312 L 439.320312 396.128906 L 680.621094 154.828125 Z M 587.8125 62.019531 " clip-rule="nonzero"/></clipPath><clipPath id="612f29fc85"><path d="M 587.8125 62.019531 L 346.511719 303.320312 L 439.320312 396.128906 L 680.621094 154.828125 Z M 587.8125 62.019531 " clip-rule="nonzero"/></clipPath><clipPath id="543996f9bd"><path d="M 532 86 L 616 86 L 616 171 L 532 171 Z M 532 86 " clip-rule="nonzero"/></clipPath><clipPath id="eac65549bd"><path d="M 346.769531 303.066406 L 588.070312 61.765625 L 680.878906 154.574219 L 439.578125 395.871094 Z M 346.769531 303.066406 " clip-rule="nonzero"/></clipPath><clipPath id="d23314e690"><path d="M 587.8125 62.019531 L 346.511719 303.320312 L 439.320312 396.128906 L 680.621094 154.828125 Z M 587.8125 62.019531 " clip-rule="nonzero"/></clipPath><clipPath id="b39fd8b851"><path d="M 587.8125 62.019531 L 346.511719 303.320312 L 439.320312 396.128906 L 680.621094 154.828125 Z M 587.8125 62.019531 " clip-rule="nonzero"/></clipPath><clipPath id="b185a902b1"><path d="M 394 271 L 479 271 L 479 355 L 394 355 Z M 394 271 " clip-rule="nonzero"/></clipPath><clipPath id="da236f48a6"><path d="M 346.769531 303.066406 L 588.070312 61.765625 L 680.878906 154.574219 L 439.578125 395.871094 Z M 346.769531 303.066406 " clip-rule="nonzero"/></clipPath><clipPath id="66d4478c13"><path d="M 587.8125 62.019531 L 346.511719 303.320312 L 439.320312 396.128906 L 680.621094 154.828125 Z M 587.8125 62.019531 " clip-rule="nonzero"/></clipPath><clipPath id="ffb2a480c8"><path d="M 587.8125 62.019531 L 346.511719 303.320312 L 439.320312 396.128906 L 680.621094 154.828125 Z M 587.8125 62.019531 " clip-rule="nonzero"/></clipPath><clipPath id="076ecc9514"><path d="M 575 131 L 660 131 L 660 215 L 575 215 Z M 575 131 " clip-rule="nonzero"/></clipPath><clipPath id="82c7833e97"><path d="M 346.769531 303.066406 L 588.070312 61.765625 L 680.878906 154.574219 L 439.578125 395.871094 Z M 346.769531 303.066406 " clip-rule="nonzero"/></clipPath><clipPath id="707868c218"><path d="M 587.8125 62.019531 L 346.511719 303.320312 L 439.320312 396.128906 L 680.621094 154.828125 Z M 587.8125 62.019531 " clip-rule="nonzero"/></clipPath><clipPath id="65ea78ca66"><path d="M 587.8125 62.019531 L 346.511719 303.320312 L 439.320312 396.128906 L 680.621094 154.828125 Z M 587.8125 62.019531 " clip-rule="nonzero"/></clipPath><clipPath id="a9f01feb68"><path d="M 134 455 L 289 455 L 289 609 L 134 609 Z M 134 455 " clip-rule="nonzero"/></clipPath><clipPath id="027b314d93"><path d="M 57.242188 592.945312 L 298.542969 351.644531 L 391.351562 444.453125 L 150.050781 685.753906 Z M 57.242188 592.945312 " clip-rule="nonzero"/></clipPath><clipPath id="e57a084a05"><path d="M 57.242188 592.945312 L 298.542969 351.644531 L 391.351562 444.453125 L 150.050781 685.753906 Z M 57.242188 592.945312 " clip-rule="nonzero"/></clipPath><clipPath id="1c7c3b3302"><path d="M 57.242188 592.945312 L 298.542969 351.644531 L 391.351562 444.453125 L 150.050781 685.753906 Z M 57.242188 592.945312 " clip-rule="nonzero"/></clipPath><clipPath id="79dcd9a660"><path d="M 82 537 L 166 537 L 166 622 L 82 622 Z M 82 537 " clip-rule="nonzero"/></clipPath><clipPath id="27477a61c7"><path d="M 57.242188 592.945312 L 298.542969 351.644531 L 391.351562 444.453125 L 150.050781 685.753906 Z M 57.242188 592.945312 " clip-rule="nonzero"/></clipPath><clipPath id="c8dc16aa82"><path d="M 57.242188 592.945312 L 298.542969 351.644531 L 391.351562 444.453125 L 150.050781 685.753906 Z M 57.242188 592.945312 " clip-rule="nonzero"/></clipPath><clipPath id="9d216fdfbe"><path d="M 57.242188 592.945312 L 298.542969 351.644531 L 391.351562 444.453125 L 150.050781 685.753906 Z M 57.242188 592.945312 " clip-rule="nonzero"/></clipPath><clipPath id="291d8a022a"><path d="M 266 400 L 351 400 L 351 484 L 266 484 Z M 266 400 " clip-rule="nonzero"/></clipPath><clipPath id="a67623bbe5"><path d="M 57.242188 592.945312 L 298.542969 351.644531 L 391.351562 444.453125 L 150.050781 685.753906 Z M 57.242188 592.945312 " clip-rule="nonzero"/></clipPath><clipPath id="8f68594fea"><path d="M 57.242188 592.945312 L 298.542969 351.644531 L 391.351562 444.453125 L 150.050781 685.753906 Z M 57.242188 592.945312 " clip-rule="nonzero"/></clipPath><clipPath id="9d05e32b75"><path d="M 57.242188 592.945312 L 298.542969 351.644531 L 391.351562 444.453125 L 150.050781 685.753906 Z M 57.242188 592.945312 " clip-rule="nonzero"/></clipPath><clipPath id="6557078b0d"><path d="M 126 580 L 211 580 L 211 665 L 126 665 Z M 126 580 " clip-rule="nonzero"/></clipPath><clipPath id="84a5a9e769"><path d="M 57.242188 592.945312 L 298.542969 351.644531 L 391.351562 444.453125 L 150.050781 685.753906 Z M 57.242188 592.945312 " clip-rule="nonzero"/></clipPath><clipPath id="48bdddb913"><path d="M 57.242188 592.945312 L 298.542969 351.644531 L 391.351562 444.453125 L 150.050781 685.753906 Z M 57.242188 592.945312 " clip-rule="nonzero"/></clipPath><clipPath id="069434b799"><path d="M 57.242188 592.945312 L 298.542969 351.644531 L 391.351562 444.453125 L 150.050781 685.753906 Z M 57.242188 592.945312 " clip-rule="nonzero"/></clipPath><clipPath id="80f6623521"><path d="M 267.800781 451.769531 L 299.101562 451.769531 L 299.101562 483.070312 L 267.800781 483.070312 Z M 267.800781 451.769531 " clip-rule="nonzero"/></clipPath><clipPath id="6dfff051f5"><path d="M 283.449219 451.769531 C 274.804688 451.769531 267.800781 458.777344 267.800781 467.417969 C 267.800781 476.0625 274.804688 483.070312 283.449219 483.070312 C 292.09375 483.070312 299.101562 476.0625 299.101562 467.417969 C 299.101562 458.777344 292.09375 451.769531 283.449219 451.769531 Z M 283.449219 451.769531 " clip-rule="nonzero"/></clipPath></defs><g clip-path="url(#bdef050d86)"><path fill="#000000" d="M 372.925781 414.246094 C 353.035156 414.246094 336.925781 398.027344 336.925781 378.246094 C 336.925781 358.46875 353.035156 342.246094 372.925781 342.246094 C 392.8125 342.246094 408.925781 358.359375 408.925781 378.246094 C 408.925781 398.136719 392.703125 414.246094 372.925781 414.246094 Z M 372.925781 344.46875 C 354.257812 344.46875 339.148438 359.582031 339.148438 378.246094 C 339.148438 396.914062 354.257812 412.027344 372.925781 412.027344 C 391.589844 412.027344 406.703125 396.914062 406.703125 378.246094 C 406.703125 359.582031 391.480469 344.46875 372.925781 344.46875 Z M 372.925781 344.46875 " fill-opacity="1" fill-rule="nonzero"/></g><path stroke-linecap="butt" transform="matrix(0, -0.75, 0.75, 0, 369.24148, 342.242171)" fill="none" stroke-linejoin="miter" d="M -0.0000226381 5.000944 L 168.343736 5.000944 " stroke="#000000" stroke-width="10" stroke-opacity="1" stroke-miterlimit="4"/><path stroke-linecap="butt" transform="matrix(0, -0.75, 0.75, 0, 369.242709, 93.332639)" fill="none" stroke-linejoin="miter" d="M 0.000809869 4.999305 L 124.448733 4.999305 " stroke="#000000" stroke-width="10" stroke-opacity="1" stroke-miterlimit="4"/><g clip-path="url(#b7c088b702)"><path fill="#000000" d="M 641.09375 326.179688 C 633.367188 344.066406 625.082031 363.058594 624.738281 380.949219 C 624.390625 398.988281 632.097656 415.476562 639.195312 430.835938 L 642.867188 424.542969 C 627.589844 425.816406 612.535156 427.0625 598.664062 427.105469 C 583.671875 427.148438 570.507812 425.773438 560.238281 421.75 C 540.625 414.074219 530.324219 396.296875 519.175781 376.699219 L 518.976562 381.402344 C 531.539062 363.066406 543.269531 346.15625 563.445312 338.242188 C 576.480469 333.128906 593.398438 331.636719 612.285156 331.578125 C 622.863281 331.546875 633.882812 331.964844 645.011719 332.382812 L 641.09375 326.179688 M 649.265625 329.703125 C 649.847656 328.355469 649.726562 326.8125 648.945312 325.570312 C 648.160156 324.328125 646.816406 323.554688 645.347656 323.5 C 634.253906 323.082031 623.050781 322.65625 612.261719 322.691406 C 593.183594 322.746094 574.855469 324.214844 560.191406 329.96875 C 537.074219 339.039062 523.9375 358.425781 511.632812 376.382812 C 510.671875 377.785156 510.597656 379.613281 511.4375 381.089844 C 522.277344 400.140625 533.964844 421.015625 556.992188 430.027344 C 568.835938 434.664062 583.339844 436.039062 598.691406 435.996094 C 612.988281 435.953125 628.410156 434.667969 643.605469 433.402344 C 645.050781 433.28125 646.347656 432.464844 647.082031 431.210938 C 647.8125 429.957031 647.882812 428.429688 647.277344 427.109375 C 640.003906 411.371094 633.335938 396.761719 633.636719 381.121094 C 633.941406 365.335938 641.328125 348.074219 649.265625 329.703125 Z M 649.265625 329.703125 " fill-opacity="1" fill-rule="nonzero"/></g><g clip-path="url(#be39762803)"><path fill="#000000" d="M 640.734375 351.9375 L 742.738281 351.9375 C 745.695312 351.9375 748.089844 349.542969 748.089844 346.59375 C 748.089844 343.640625 745.695312 341.25 742.738281 341.25 L 640.734375 341.25 C 637.777344 341.25 635.382812 343.640625 635.382812 346.59375 C 635.382812 349.542969 637.777344 351.9375 640.734375 351.9375 Z M 640.734375 351.9375 " fill-opacity="0.996" fill-rule="nonzero"/></g><g clip-path="url(#5a073cca1f)"><path fill="#000000" d="M 411.863281 384.109375 L 513.871094 384.109375 C 516.824219 384.109375 519.222656 381.71875 519.222656 378.765625 C 519.222656 375.816406 516.824219 373.421875 513.871094 373.421875 L 411.863281 373.421875 C 408.910156 373.421875 406.515625 375.816406 406.515625 378.765625 C 406.515625 381.71875 408.910156 384.109375 411.863281 384.109375 Z M 411.863281 384.109375 " fill-opacity="0.996" fill-rule="nonzero"/></g><path fill="#000000" d="M 640 413.597656 L 742.007812 413.597656 C 744.960938 413.597656 747.355469 411.203125 747.355469 408.253906 C 747.355469 405.300781 744.960938 402.90625 742.007812 402.90625 L 640 402.90625 C 637.046875 402.90625 634.648438 405.300781 634.648438 408.253906 C 634.648438 411.203125 637.046875 413.597656 640 413.597656 Z M 640 413.597656 " fill-opacity="0.996" fill-rule="nonzero"/><g clip-path="url(#c4975b7a7a)"><g clip-path="url(#9625026b63)"><g clip-path="url(#be0e3458c1)"><g clip-path="url(#d0e5289fc6)"><path fill="#000000" d="M 598.269531 531.335938 C 580.128906 538.136719 560.820312 545.308594 547.753906 557.394531 C 534.585938 569.578125 528.058594 586.453125 521.925781 602.117188 L 528.960938 600.402344 C 517.546875 590.355469 506.304688 580.453125 496.738281 570.5625 C 486.402344 559.871094 478.339844 549.511719 474.164062 539.398438 C 466.1875 520.078125 471.851562 500.460938 478.238281 478.980469 L 474.730469 482.085938 C 496.511719 478.425781 516.699219 475.160156 536.242188 484.128906 C 548.867188 489.925781 561.566406 500.992188 574.59375 514.460938 C 581.886719 522 589.164062 530.164062 596.511719 538.414062 L 598.269531 531.335938 M 601.359375 539.609375 C 602.722656 539.09375 603.75 537.945312 604.101562 536.527344 C 604.449219 535.113281 604.082031 533.617188 603.113281 532.53125 C 595.785156 524.308594 588.386719 516.003906 580.949219 508.3125 C 567.796875 494.714844 554.144531 482.621094 539.9375 476.097656 C 517.542969 465.820312 494.613281 469.789062 473.28125 473.375 C 471.613281 473.652344 470.253906 474.855469 469.769531 476.476562 C 463.5625 497.355469 456.632812 520.101562 466 542.78125 C 470.816406 554.445312 479.800781 565.765625 490.382812 576.707031 C 500.242188 586.902344 511.765625 597.042969 523.117188 607.039062 C 524.199219 607.988281 525.675781 608.351562 527.078125 608.011719 C 528.480469 607.671875 529.625 606.667969 530.152344 605.324219 C 536.4375 589.277344 542.328125 574.441406 553.75 563.875 C 565.277344 553.210938 582.730469 546.59375 601.359375 539.609375 Z M 601.359375 539.609375 " fill-opacity="1" fill-rule="nonzero"/></g></g></g></g><g clip-path="url(#afe9acfa52)"><g clip-path="url(#2b29c0b0fd)"><g clip-path="url(#c1f83d2c62)"><g clip-path="url(#4af15925ef)"><path fill="#000000" d="M 621.421875 548.707031 L 623.730469 547.402344 C 602.074219 553.214844 578.492188 559.40625 563.492188 573.308594 C 548.359375 587.335938 542.480469 608.671875 537.015625 628 C 536.21875 630.824219 537.859375 633.757812 540.679688 634.550781 C 543.503906 635.34375 546.4375 633.699219 547.238281 630.875 C 552.914062 610.785156 558.179688 592.703125 570.703125 581.09375 C 583.363281 569.363281 603.953125 563.703125 626.46875 557.660156 C 627.335938 557.429688 628.128906 556.980469 628.777344 556.355469 C 630.894531 554.320312 630.964844 550.960938 628.933594 548.847656 C 626.902344 546.734375 623.539062 546.671875 621.421875 548.707031 Z M 621.421875 548.707031 " fill-opacity="0.996" fill-rule="nonzero"/></g></g></g></g><g clip-path="url(#96a426296c)"><g clip-path="url(#e22e91992a)"><g clip-path="url(#22b4c00107)"><g clip-path="url(#186289cb4d)"><path fill="#000000" d="M 579.550781 548.832031 L 649.671875 621.769531 C 651.703125 623.882812 655.0625 623.945312 657.179688 621.910156 C 659.296875 619.875 659.367188 616.515625 657.335938 614.402344 L 587.214844 541.464844 C 585.183594 539.351562 581.820312 539.289062 579.703125 541.324219 C 577.589844 543.355469 577.519531 546.71875 579.550781 548.832031 Z M 579.550781 548.832031 " fill-opacity="0.996" fill-rule="nonzero"/></g></g></g></g><g clip-path="url(#111798ca3b)"><g clip-path="url(#e4c5cb17cd)"><g clip-path="url(#54cfdebdf9)"><g clip-path="url(#641f930e38)"><path fill="#000000" d="M 399.160156 407.363281 L 469.277344 480.296875 C 471.308594 482.410156 474.671875 482.476562 476.789062 480.441406 C 478.902344 478.40625 478.972656 475.042969 476.941406 472.929688 L 406.820312 399.996094 C 404.789062 397.882812 401.429688 397.816406 399.3125 399.851562 C 397.195312 401.886719 397.128906 405.25 399.160156 407.363281 Z M 399.160156 407.363281 " fill-opacity="0.996" fill-rule="nonzero"/></g></g></g></g><g clip-path="url(#fec61341a2)"><g clip-path="url(#b80496014e)"><g clip-path="url(#f6a6cfd68a)"><g clip-path="url(#c070ced1b9)"><path fill="#000000" d="M 534.839844 590.808594 L 604.960938 663.746094 C 606.992188 665.859375 610.351562 665.921875 612.46875 663.886719 C 614.585938 661.851562 614.652344 658.488281 612.621094 656.378906 L 542.503906 583.441406 C 540.472656 581.328125 537.109375 581.265625 534.992188 583.296875 C 532.878906 585.332031 532.808594 588.695312 534.839844 590.808594 Z M 534.839844 590.808594 " fill-opacity="0.996" fill-rule="nonzero"/></g></g></g></g><g clip-path="url(#0e08db92f1)"><path fill="#000000" d="M 106.191406 326.601562 C 113.863281 344.375 122.085938 363.246094 122.425781 381.023438 C 122.769531 398.941406 115.125 415.324219 108.078125 430.589844 L 104.433594 424.335938 C 119.597656 425.597656 134.535156 426.839844 148.304688 426.878906 C 163.183594 426.925781 176.246094 425.554688 186.4375 421.5625 C 205.90625 413.933594 216.125 396.269531 227.191406 376.796875 L 227.386719 381.472656 C 214.917969 363.253906 203.28125 346.453125 183.257812 338.585938 C 170.320312 333.507812 153.53125 332.023438 134.785156 331.96875 C 124.289062 331.9375 113.351562 332.347656 102.304688 332.765625 L 106.191406 326.601562 M 98.085938 330.101562 C 97.507812 328.765625 97.625 327.230469 98.402344 325.996094 C 99.179688 324.765625 100.515625 323.996094 101.972656 323.9375 C 112.984375 323.523438 124.101562 323.101562 134.8125 323.132812 C 153.742188 323.191406 171.929688 324.648438 186.484375 330.367188 C 209.425781 339.375 222.464844 358.640625 234.675781 376.484375 C 235.628906 377.878906 235.703125 379.691406 234.871094 381.160156 C 224.113281 400.089844 212.511719 420.828125 189.660156 429.785156 C 177.90625 434.390625 163.511719 435.757812 148.277344 435.710938 C 134.089844 435.671875 118.785156 434.394531 103.703125 433.136719 C 102.265625 433.019531 100.980469 432.207031 100.253906 430.960938 C 99.527344 429.714844 99.457031 428.195312 100.058594 426.886719 C 107.277344 411.25 113.894531 396.734375 113.59375 381.191406 C 113.292969 365.507812 105.964844 348.355469 98.085938 330.101562 Z M 98.085938 330.101562 " fill-opacity="1" fill-rule="nonzero"/></g><path fill="#000000" d="M 261.679688 380.230469 L 261.542969 382.277344 C 260.890625 386.402344 258.980469 389.699219 255.816406 392.171875 C 252.625 394.644531 248.871094 395.644531 244.550781 395.179688 C 240.429688 394.527344 237.128906 392.617188 234.65625 389.449219 C 233.867188 388.425781 233.214844 387.3125 232.699219 386.105469 L 232.054688 384.242188 C 231.699219 382.960938 231.519531 381.625 231.515625 380.230469 C 231.625 375.960938 233.097656 372.402344 235.933594 369.566406 C 238.769531 366.730469 242.324219 365.257812 246.597656 365.148438 C 250.871094 365.257812 254.425781 366.730469 257.261719 369.566406 C 260.101562 372.402344 261.574219 375.960938 261.679688 380.230469 " fill-opacity="1" fill-rule="nonzero"/><path fill="#000000" d="M 106.554688 352.195312 L 5.320312 352.195312 C 2.386719 352.195312 0.0078125 349.816406 0.0078125 346.882812 C 0.0078125 343.953125 2.386719 341.574219 5.320312 341.574219 L 106.554688 341.574219 C 109.484375 341.574219 111.863281 343.953125 111.863281 346.882812 C 111.863281 349.816406 109.484375 352.195312 106.554688 352.195312 Z M 106.554688 352.195312 " fill-opacity="0.996" fill-rule="nonzero"/><path fill="#000000" d="M 333.6875 384.160156 L 232.453125 384.160156 C 229.523438 384.160156 227.144531 381.785156 227.144531 378.851562 C 227.144531 375.917969 229.523438 373.542969 232.453125 373.542969 L 333.6875 373.542969 C 336.621094 373.542969 339 375.917969 339 378.851562 C 339 381.785156 336.621094 384.160156 333.6875 384.160156 Z M 333.6875 384.160156 " fill-opacity="0.996" fill-rule="nonzero"/><path fill="#000000" d="M 107.28125 413.457031 L 6.046875 413.457031 C 3.113281 413.457031 0.738281 411.082031 0.738281 408.148438 C 0.738281 405.214844 3.113281 402.839844 6.046875 402.839844 L 107.28125 402.839844 C 110.214844 402.839844 112.589844 405.214844 112.589844 408.148438 C 112.589844 411.082031 110.214844 413.457031 107.28125 413.457031 Z M 107.28125 413.457031 " fill-opacity="0.996" fill-rule="nonzero"/><g clip-path="url(#e4adf83b03)"><path fill="#000000" d="M 434.496094 645.058594 C 434.15625 645.648438 433.691406 646.117188 433.097656 646.457031 C 432.507812 646.796875 431.867188 646.96875 431.1875 646.96875 L 314.554688 646.96875 C 314.222656 646.96875 313.890625 646.925781 313.566406 646.835938 C 313.242188 646.75 312.933594 646.625 312.644531 646.457031 C 312.351562 646.289062 312.089844 646.085938 311.851562 645.851562 C 311.613281 645.613281 311.414062 645.347656 311.246094 645.058594 C 311.078125 644.769531 310.949219 644.460938 310.863281 644.136719 C 310.777344 643.816406 310.730469 643.484375 310.730469 643.152344 C 310.730469 642.816406 310.777344 642.484375 310.863281 642.164062 C 310.949219 641.839844 311.078125 641.53125 311.246094 641.242188 L 369.558594 540.445312 C 369.726562 540.152344 369.929688 539.890625 370.167969 539.652344 C 370.40625 539.417969 370.667969 539.214844 370.960938 539.046875 C 371.25 538.878906 371.558594 538.753906 371.882812 538.667969 C 372.207031 538.578125 372.535156 538.535156 372.871094 538.535156 C 373.207031 538.535156 373.535156 538.578125 373.859375 538.667969 C 374.183594 538.753906 374.492188 538.878906 374.78125 539.046875 C 375.074219 539.214844 375.335938 539.417969 375.574219 539.652344 C 375.8125 539.890625 376.015625 540.152344 376.183594 540.445312 L 434.496094 641.242188 C 434.839844 641.832031 435.011719 642.46875 435.011719 643.152344 C 435.011719 643.832031 434.839844 644.46875 434.496094 645.058594 Z M 424.5625 639.332031 L 372.871094 549.988281 L 321.179688 639.332031 Z M 424.5625 639.332031 " fill-opacity="1" fill-rule="nonzero"/></g><path fill="#000000" d="M 376.691406 747.101562 C 376.691406 747.605469 376.597656 748.09375 376.402344 748.5625 C 376.207031 749.027344 375.929688 749.441406 375.574219 749.800781 C 375.214844 750.15625 374.800781 750.433594 374.332031 750.625 C 373.863281 750.820312 373.375 750.917969 372.867188 750.917969 C 372.359375 750.917969 371.871094 750.820312 371.402344 750.625 C 370.933594 750.433594 370.523438 750.15625 370.164062 749.800781 C 369.804688 749.441406 369.527344 749.027344 369.332031 748.5625 C 369.140625 748.09375 369.042969 747.605469 369.042969 747.101562 L 369.042969 643.15625 C 369.042969 642.648438 369.140625 642.164062 369.332031 641.695312 C 369.527344 641.226562 369.804688 640.8125 370.164062 640.457031 C 370.523438 640.097656 370.933594 639.824219 371.402344 639.628906 C 371.871094 639.433594 372.359375 639.339844 372.867188 639.339844 C 373.375 639.339844 373.863281 639.433594 374.332031 639.628906 C 374.800781 639.824219 375.214844 640.097656 375.574219 640.457031 C 375.929688 640.8125 376.207031 641.226562 376.402344 641.695312 C 376.597656 642.164062 376.691406 642.648438 376.691406 643.15625 Z M 376.691406 747.101562 " fill-opacity="1" fill-rule="nonzero"/><g clip-path="url(#d261de3117)"><path fill="#000000" d="M 376.691406 519.636719 C 376.691406 520.144531 376.597656 520.628906 376.402344 521.097656 C 376.207031 521.566406 375.929688 521.976562 375.574219 522.335938 C 375.214844 522.695312 374.800781 522.96875 374.332031 523.164062 C 373.863281 523.355469 373.375 523.453125 372.867188 523.453125 C 372.359375 523.453125 371.871094 523.355469 371.402344 523.164062 C 370.933594 522.96875 370.523438 522.695312 370.164062 522.335938 C 369.804688 521.976562 369.527344 521.566406 369.332031 521.097656 C 369.140625 520.628906 369.042969 520.144531 369.042969 519.636719 L 369.042969 415.691406 C 369.042969 415.1875 369.140625 414.699219 369.332031 414.230469 C 369.527344 413.761719 369.804688 413.351562 370.164062 412.992188 C 370.523438 412.636719 370.933594 412.359375 371.402344 412.164062 C 371.871094 411.972656 372.359375 411.875 372.867188 411.875 C 373.375 411.875 373.863281 411.972656 374.332031 412.164062 C 374.800781 412.359375 375.214844 412.636719 375.574219 412.992188 C 375.929688 413.351562 376.207031 413.761719 376.402344 414.230469 C 376.597656 414.699219 376.691406 415.1875 376.691406 415.691406 Z M 376.691406 519.636719 " fill-opacity="1" fill-rule="nonzero"/></g><path fill="#000000" d="M 388.074219 530.996094 C 388.074219 539.332031 381.21875 546.171875 372.867188 546.171875 C 364.515625 546.171875 357.667969 539.332031 357.667969 530.996094 C 357.667969 522.660156 364.515625 515.820312 372.867188 515.820312 C 381.21875 515.820312 388.074219 522.660156 388.074219 530.996094 Z M 380.421875 530.996094 C 380.421875 526.785156 377.085938 523.453125 372.867188 523.453125 C 368.648438 523.453125 365.316406 526.785156 365.316406 530.996094 C 365.316406 535.203125 368.648438 538.535156 372.867188 538.535156 C 377.085938 538.535156 380.421875 535.203125 380.421875 530.996094 Z M 380.421875 530.996094 " fill-opacity="1" fill-rule="nonzero"/><g clip-path="url(#e112c8c7d7)"><g clip-path="url(#3c2e3aa8b0)"><g clip-path="url(#1cf08f216e)"><g clip-path="url(#610e87f756)"><path fill="#000000" d="M 219.410156 153.429688 C 212.6875 171.59375 205.601562 190.9375 193.574219 204.054688 C 181.449219 217.277344 164.601562 223.878906 148.964844 230.078125 L 150.644531 223.035156 C 160.746094 234.40625 170.695312 245.605469 180.628906 255.128906 C 191.363281 265.417969 201.757812 273.433594 211.890625 277.566406 C 231.246094 285.460938 250.835938 279.707031 272.289062 273.226562 L 269.203125 276.75 C 272.761719 254.953125 275.945312 234.75 266.886719 215.25 C 261.039062 202.648438 249.914062 189.996094 236.390625 177.03125 C 228.816406 169.769531 220.621094 162.527344 212.339844 155.214844 L 219.410156 153.429688 M 211.125 150.375 C 211.628906 149.007812 212.777344 147.976562 214.191406 147.617188 C 215.605469 147.261719 217.101562 147.625 218.191406 148.589844 C 226.445312 155.878906 234.78125 163.242188 242.507812 170.648438 C 256.164062 183.738281 268.320312 197.339844 274.902344 211.515625 C 285.277344 233.863281 281.40625 256.8125 277.917969 278.160156 C 277.648438 279.828125 276.449219 281.195312 274.832031 281.683594 C 253.976562 287.984375 231.265625 295.015625 208.542969 285.746094 C 196.859375 280.980469 185.5 272.046875 174.511719 261.507812 C 164.273438 251.695312 154.082031 240.21875 144.039062 228.910156 C 143.082031 227.832031 142.710938 226.355469 143.046875 224.953125 C 143.378906 223.550781 144.378906 222.398438 145.71875 221.867188 C 161.738281 215.511719 176.550781 209.558594 187.066406 198.089844 C 197.679688 186.515625 204.21875 169.03125 211.125 150.375 Z M 211.125 150.375 " fill-opacity="1" fill-rule="nonzero"/></g></g></g></g><g clip-path="url(#7b25445fc6)"><g clip-path="url(#dbdeb366fb)"><g clip-path="url(#bad4fc773b)"><g clip-path="url(#a5e5bf1f17)"><path fill="#000000" d="M 201.9375 130.351562 L 203.230469 128.035156 C 197.515625 149.71875 191.425781 173.328125 177.589844 188.390625 C 163.628906 203.582031 142.320312 209.554688 123.015625 215.105469 C 120.195312 215.914062 117.253906 214.285156 116.449219 211.46875 C 115.644531 208.648438 117.277344 205.707031 120.097656 204.894531 C 140.160156 199.128906 158.21875 193.785156 169.773438 181.210938 C 181.449219 168.5 187.019531 147.882812 192.960938 125.34375 C 193.191406 124.476562 193.636719 123.679688 194.253906 123.027344 C 196.28125 120.902344 199.640625 120.820312 201.761719 122.839844 C 203.886719 124.863281 203.964844 128.226562 201.9375 130.351562 Z M 201.9375 130.351562 " fill-opacity="0.996" fill-rule="nonzero"/></g></g></g></g><g clip-path="url(#8fd67a6914)"><g clip-path="url(#db985da295)"><g clip-path="url(#8c4ceb51b4)"><g clip-path="url(#3579091ad2)"><path fill="#000000" d="M 201.996094 172.222656 L 128.753906 102.421875 C 126.628906 100.402344 126.550781 97.039062 128.578125 94.914062 C 130.601562 92.789062 133.964844 92.703125 136.085938 94.726562 L 209.328125 164.527344 C 211.453125 166.546875 211.53125 169.910156 209.503906 172.035156 C 207.480469 174.160156 204.117188 174.242188 201.996094 172.222656 Z M 201.996094 172.222656 " fill-opacity="0.996" fill-rule="nonzero"/></g></g></g></g><g clip-path="url(#97dc10b08b)"><g clip-path="url(#6b0fefae33)"><g clip-path="url(#8769062f8b)"><g clip-path="url(#86edf8b798)"><path fill="#000000" d="M 344.253906 351.992188 L 271.011719 282.191406 C 268.890625 280.171875 268.8125 276.808594 270.835938 274.683594 C 272.863281 272.558594 276.222656 272.476562 278.34375 274.496094 L 351.589844 344.296875 C 353.710938 346.320312 353.789062 349.679688 351.761719 351.804688 C 349.738281 353.929688 346.375 354.015625 344.253906 351.992188 Z M 344.253906 351.992188 " fill-opacity="0.996" fill-rule="nonzero"/></g></g></g></g><g clip-path="url(#b9c56963ca)"><g clip-path="url(#d4f4c42ffe)"><g clip-path="url(#2bcf13c171)"><g clip-path="url(#649e95a3e3)"><path fill="#000000" d="M 160.214844 217.117188 L 86.972656 147.316406 C 84.851562 145.296875 84.773438 141.933594 86.796875 139.808594 C 88.824219 137.683594 92.183594 137.601562 94.304688 139.621094 L 167.550781 209.421875 C 169.671875 211.441406 169.75 214.804688 167.722656 216.929688 C 165.699219 219.054688 162.335938 219.136719 160.214844 217.117188 Z M 160.214844 217.117188 " fill-opacity="0.996" fill-rule="nonzero"/></g></g></g></g><g clip-path="url(#ac4bf80a68)"><g clip-path="url(#ce2980eea6)"><path fill="#000000" d="M 230.777344 364.566406 L 262.078125 364.566406 L 262.078125 395.867188 L 230.777344 395.867188 Z M 230.777344 364.566406 " fill-opacity="1" fill-rule="nonzero"/></g></g><g clip-path="url(#f20755a7c4)"><g clip-path="url(#24aebfb8dc)"><path fill="#000000" d="M 267.800781 272.304688 L 299.101562 272.304688 L 299.101562 303.605469 L 267.800781 303.605469 Z M 267.800781 272.304688 " fill-opacity="1" fill-rule="nonzero"/></g></g><g clip-path="url(#81905fc451)"><g clip-path="url(#8257efd746)"><path fill="#000000" d="M 357.347656 515.210938 L 388.648438 515.210938 L 388.648438 546.511719 L 357.347656 546.511719 Z M 357.347656 515.210938 " fill-opacity="1" fill-rule="nonzero"/></g></g><g clip-path="url(#00f453f995)"><g clip-path="url(#f7452d162a)"><path stroke-linecap="butt" transform="matrix(-0.75, 0, 0, -0.75, 435.536117, 224.152567)" fill="none" stroke-linejoin="miter" d="M 83.391911 0.000297235 L 166.78254 174.416972 L 0.00128157 174.416972 Z M 83.391911 0.000297235 " stroke="#000000" stroke-width="20" stroke-opacity="1" stroke-miterlimit="4"/></g></g><g clip-path="url(#d8632ad7e3)"><g clip-path="url(#4050ef3230)"><g clip-path="url(#e8a043ade7)"><g clip-path="url(#612f29fc85)"><path fill="#000000" d="M 510.765625 147.757812 L 594.042969 231.324219 L 593.855469 224.21875 C 589.601562 228.96875 585.371094 233.6875 581.132812 238.28125 C 564.261719 256.558594 547.867188 272.097656 530.617188 278.914062 C 509.148438 287.398438 486.175781 282.433594 473.449219 268.800781 C 460.710938 255.164062 457.222656 231.746094 465.921875 210.121094 C 470.664062 198.324219 479.089844 186.996094 489.546875 175.664062 C 498.167969 166.324219 507.972656 157.1875 517.953125 147.886719 L 510.765625 147.757812 M 518.097656 140.449219 C 516.128906 138.476562 512.949219 138.417969 510.90625 140.320312 C 500.980469 149.5625 490.878906 158.972656 481.945312 168.648438 C 471.136719 180.363281 461.746094 192.773438 456.320312 206.269531 C 446.453125 230.808594 449.859375 258.707031 465.882812 275.867188 C 481.910156 293.035156 509.5625 298.355469 534.414062 288.535156 C 554.117188 280.75 571.9375 263.492188 588.734375 245.292969 C 593.03125 240.636719 597.3125 235.855469 601.558594 231.121094 C 603.390625 229.074219 603.308594 225.957031 601.375 224.015625 Z M 518.097656 140.449219 " fill-opacity="1" fill-rule="nonzero"/></g></g></g></g><g clip-path="url(#543996f9bd)"><g clip-path="url(#eac65549bd)"><g clip-path="url(#d23314e690)"><g clip-path="url(#b39fd8b851)"><path fill="#000000" d="M 541.59375 168.914062 L 614.332031 96.175781 C 616.441406 94.066406 616.441406 90.652344 614.335938 88.546875 C 612.230469 86.445312 608.816406 86.445312 606.710938 88.550781 L 533.96875 161.292969 C 531.863281 163.398438 531.859375 166.8125 533.964844 168.917969 C 536.070312 171.023438 539.484375 171.023438 541.59375 168.914062 Z M 541.59375 168.914062 " fill-opacity="0.996" fill-rule="nonzero"/></g></g></g></g><g clip-path="url(#b185a902b1)"><g clip-path="url(#da236f48a6)"><g clip-path="url(#66d4478c13)"><g clip-path="url(#ffb2a480c8)"><path fill="#000000" d="M 404.167969 353.363281 L 476.910156 280.621094 C 479.015625 278.515625 479.019531 275.101562 476.914062 272.996094 C 474.808594 270.890625 471.394531 270.890625 469.289062 273 L 396.546875 345.738281 C 394.441406 347.847656 394.4375 351.261719 396.542969 353.367188 C 398.648438 355.46875 402.0625 355.46875 404.167969 353.363281 Z M 404.167969 353.363281 " fill-opacity="0.996" fill-rule="nonzero"/></g></g></g></g><g clip-path="url(#076ecc9514)"><g clip-path="url(#82c7833e97)"><g clip-path="url(#707868c218)"><g clip-path="url(#65ea78ca66)"><path fill="#000000" d="M 585.042969 213.410156 L 657.785156 140.671875 C 659.890625 138.5625 659.890625 135.148438 657.789062 133.042969 C 655.683594 130.941406 652.269531 130.941406 650.160156 133.046875 L 577.421875 205.789062 C 575.3125 207.894531 575.3125 211.308594 577.417969 213.414062 C 579.523438 215.519531 582.9375 215.519531 585.042969 213.410156 Z M 585.042969 213.410156 " fill-opacity="0.996" fill-rule="nonzero"/></g></g></g></g><g clip-path="url(#a9f01feb68)"><g clip-path="url(#027b314d93)"><g clip-path="url(#e57a084a05)"><g clip-path="url(#1c7c3b3302)"><path fill="#000000" d="M 142.976562 515.894531 L 226.542969 599.171875 L 219.4375 598.988281 C 224.1875 594.730469 228.90625 590.503906 233.5 586.265625 C 251.777344 569.394531 267.316406 553 274.132812 535.75 C 282.617188 514.277344 277.65625 491.308594 264.023438 478.578125 C 250.382812 465.84375 226.964844 462.355469 205.34375 471.050781 C 193.546875 475.796875 182.214844 484.21875 170.882812 494.679688 C 161.542969 503.296875 152.40625 513.101562 143.109375 523.085938 L 142.976562 515.894531 M 135.671875 523.226562 C 133.695312 521.261719 133.636719 518.078125 135.539062 516.039062 C 144.785156 506.113281 154.191406 496.011719 163.871094 487.078125 C 175.582031 476.269531 187.996094 466.878906 201.488281 461.453125 C 226.027344 451.582031 253.925781 454.988281 271.085938 471.011719 C 288.253906 487.039062 293.578125 514.691406 283.753906 539.546875 C 275.96875 559.25 258.710938 577.070312 240.511719 593.863281 C 235.855469 598.164062 231.078125 602.445312 226.339844 606.691406 C 224.296875 608.523438 221.179688 608.441406 219.234375 606.503906 Z M 135.671875 523.226562 " fill-opacity="1" fill-rule="nonzero"/></g></g></g></g><g clip-path="url(#79dcd9a660)"><g clip-path="url(#27477a61c7)"><g clip-path="url(#c8dc16aa82)"><g clip-path="url(#9d216fdfbe)"><path fill="#000000" d="M 164.136719 546.722656 L 91.394531 619.464844 C 89.289062 621.570312 85.875 621.574219 83.769531 619.46875 C 81.664062 617.363281 81.664062 613.949219 83.773438 611.839844 L 156.511719 539.101562 C 158.621094 536.992188 162.035156 536.992188 164.140625 539.097656 C 166.246094 541.203125 166.242188 544.617188 164.136719 546.722656 Z M 164.136719 546.722656 " fill-opacity="0.996" fill-rule="nonzero"/></g></g></g></g><g clip-path="url(#291d8a022a)"><g clip-path="url(#a67623bbe5)"><g clip-path="url(#8f68594fea)"><g clip-path="url(#9d05e32b75)"><path fill="#000000" d="M 348.582031 409.300781 L 275.84375 482.042969 C 273.734375 484.148438 270.320312 484.148438 268.214844 482.046875 C 266.109375 479.941406 266.113281 476.527344 268.21875 474.417969 L 340.960938 401.679688 C 343.066406 399.570312 346.480469 399.570312 348.585938 401.675781 C 350.691406 403.78125 350.6875 407.195312 348.582031 409.300781 Z M 348.582031 409.300781 " fill-opacity="0.996" fill-rule="nonzero"/></g></g></g></g><g clip-path="url(#6557078b0d)"><g clip-path="url(#84a5a9e769)"><g clip-path="url(#48bdddb913)"><g clip-path="url(#069434b799)"><path fill="#000000" d="M 208.632812 590.175781 L 135.890625 662.914062 C 133.785156 665.023438 130.371094 665.023438 128.265625 662.917969 C 126.160156 660.8125 126.160156 657.398438 128.269531 655.292969 L 201.007812 582.550781 C 203.117188 580.445312 206.53125 580.441406 208.636719 582.546875 C 210.742188 584.652344 210.738281 588.066406 208.632812 590.175781 Z M 208.632812 590.175781 " fill-opacity="0.996" fill-rule="nonzero"/></g></g></g></g><g clip-path="url(#80f6623521)"><g clip-path="url(#6dfff051f5)"><path fill="#000000" d="M 267.800781 451.769531 L 299.101562 451.769531 L 299.101562 483.070312 L 267.800781 483.070312 Z M 267.800781 451.769531 " fill-opacity="1" fill-rule="nonzero"/></g></g><g fill="#000000" fill-opacity="1"><g transform="translate(349.684145, 392.255309)"><g><path d="M 17.84375 -10.71875 C 17.84375 -6.976562 17.203125 -4.195312 15.921875 -2.375 C 14.640625 -0.5625 12.644531 0.34375 9.9375 0.34375 C 7.257812 0.34375 5.273438 -0.539062 3.984375 -2.3125 C 2.691406 -4.09375 2.023438 -6.75 1.984375 -10.28125 L 1.984375 -14.546875 C 1.984375 -18.234375 2.617188 -20.972656 3.890625 -22.765625 C 5.171875 -24.566406 7.175781 -25.46875 9.90625 -25.46875 C 12.601562 -25.46875 14.585938 -24.597656 15.859375 -22.859375 C 17.140625 -21.128906 17.800781 -18.460938 17.84375 -14.859375 Z M 14.640625 -15.078125 C 14.640625 -17.773438 14.257812 -19.742188 13.5 -20.984375 C 12.75 -22.222656 11.550781 -22.84375 9.90625 -22.84375 C 8.269531 -22.84375 7.078125 -22.222656 6.328125 -20.984375 C 5.578125 -19.753906 5.191406 -17.863281 5.171875 -15.3125 L 5.171875 -10.21875 C 5.171875 -7.5 5.5625 -5.492188 6.34375 -4.203125 C 7.132812 -2.910156 8.332031 -2.265625 9.9375 -2.265625 C 11.507812 -2.265625 12.675781 -2.875 13.4375 -4.09375 C 14.207031 -5.3125 14.609375 -7.226562 14.640625 -9.84375 Z M 14.640625 -15.078125 "/></g></g></g><g fill="#000000" fill-opacity="1"><g transform="translate(369.515133, 392.255309)"><g><path d="M 2.3125 5 L 0.5 3.765625 C 1.582031 2.253906 2.144531 0.703125 2.1875 -0.890625 L 2.1875 -3.78125 L 5.3125 -3.78125 L 5.3125 -1.28125 C 5.3125 -0.113281 5.023438 1.046875 4.453125 2.203125 C 3.890625 3.367188 3.175781 4.300781 2.3125 5 Z M 2.3125 5 "/></g></g></g><g fill="#000000" fill-opacity="1"><g transform="translate(376.447357, 392.255309)"><g><path d="M 12.578125 0 L 9.359375 0 L 9.359375 -21.265625 L 2.9375 -18.90625 L 2.9375 -21.796875 L 12.078125 -25.234375 L 12.578125 -25.234375 Z M 12.578125 0 "/></g></g></g></svg>