<svg xmlns="http://www.w3.org/2000/svg" xmlns:xlink="http://www.w3.org/1999/xlink" width="1000" zoomAndPan="magnify" viewBox="0 0 750 749.999995" height="1000" preserveAspectRatio="xMidYMid meet" version="1.0"><defs><g/><clipPath id="a4f9b70c38"><path d="M 336.925781 342.246094 L 408.925781 342.246094 L 408.925781 414.246094 L 336.925781 414.246094 Z M 336.925781 342.246094 " clip-rule="nonzero"/></clipPath><clipPath id="cc180c7a4d"><path d="M 510 322.65625 L 650 322.65625 L 650 437 L 510 437 Z M 510 322.65625 " clip-rule="nonzero"/></clipPath><clipPath id="a9f43fd555"><path d="M 635 341 L 748.058594 341 L 748.058594 352 L 635 352 Z M 635 341 " clip-rule="nonzero"/></clipPath><clipPath id="056d32d045"><path d="M 406.304688 373 L 520 373 L 520 385 L 406.304688 385 Z M 406.304688 373 " clip-rule="nonzero"/></clipPath><clipPath id="9f7b474401"><path d="M 461 469 L 605 469 L 605 609 L 461 609 Z M 461 469 " clip-rule="nonzero"/></clipPath><clipPath id="28e01f1abc"><path d="M 443.976562 356.453125 L 678.917969 600.832031 L 589.167969 687.117188 L 354.226562 442.734375 Z M 443.976562 356.453125 " clip-rule="nonzero"/></clipPath><clipPath id="5c85de9d30"><path d="M 679.082031 601.003906 L 444.140625 356.621094 L 354.386719 442.90625 L 589.332031 687.285156 Z M 679.082031 601.003906 " clip-rule="nonzero"/></clipPath><clipPath id="f536e9928e"><path d="M 536 547 L 631 547 L 631 635 L 536 635 Z M 536 547 " clip-rule="nonzero"/></clipPath><clipPath id="2bd4ebf968"><path d="M 443.976562 356.453125 L 678.917969 600.832031 L 589.167969 687.117188 L 354.226562 442.734375 Z M 443.976562 356.453125 " clip-rule="nonzero"/></clipPath><clipPath id="11f9d7ee01"><path d="M 679.082031 601.003906 L 444.140625 356.621094 L 354.386719 442.90625 L 589.332031 687.285156 Z M 679.082031 601.003906 " clip-rule="nonzero"/></clipPath><clipPath id="ae98800e7e"><path d="M 578 539 L 659 539 L 659 624 L 578 624 Z M 578 539 " clip-rule="nonzero"/></clipPath><clipPath id="bb0a042e61"><path d="M 443.976562 356.453125 L 678.917969 600.832031 L 589.167969 687.117188 L 354.226562 442.734375 Z M 443.976562 356.453125 " clip-rule="nonzero"/></clipPath><clipPath id="90ddf825ed"><path d="M 679.082031 601.003906 L 444.140625 356.621094 L 354.386719 442.90625 L 589.332031 687.285156 Z M 679.082031 601.003906 " clip-rule="nonzero"/></clipPath><clipPath id="6b5b300494"><path d="M 397 398 L 479 398 L 479 482 L 397 482 Z M 397 398 " clip-rule="nonzero"/></clipPath><clipPath id="9b06c07f77"><path d="M 443.976562 356.453125 L 678.917969 600.832031 L 589.167969 687.117188 L 354.226562 442.734375 Z M 443.976562 356.453125 " clip-rule="nonzero"/></clipPath><clipPath id="d7878a3764"><path d="M 679.082031 601.003906 L 444.140625 356.621094 L 354.386719 442.90625 L 589.332031 687.285156 Z M 679.082031 601.003906 " clip-rule="nonzero"/></clipPath><clipPath id="742cff5446"><path d="M 533 581 L 615 581 L 615 666 L 533 666 Z M 533 581 " clip-rule="nonzero"/></clipPath><clipPath id="36e7ccf27c"><path d="M 443.976562 356.453125 L 678.917969 600.832031 L 589.167969 687.117188 L 354.226562 442.734375 Z M 443.976562 356.453125 " clip-rule="nonzero"/></clipPath><clipPath id="9510ff36e5"><path d="M 679.082031 601.003906 L 444.140625 356.621094 L 354.386719 442.90625 L 589.332031 687.285156 Z M 679.082031 601.003906 " clip-rule="nonzero"/></clipPath><clipPath id="2af1f24e1c"><path d="M 97 323.097656 L 236 323.097656 L 236 436 L 97 436 Z M 97 323.097656 " clip-rule="nonzero"/></clipPath><clipPath id="5482732198"><path d="M 227 373 L 339 373 L 339 385 L 227 385 Z M 227 373 " clip-rule="nonzero"/></clipPath><clipPath id="1617f68e80"><path d="M 310.289062 538 L 435.539062 538 L 435.539062 647 L 310.289062 647 Z M 310.289062 538 " clip-rule="nonzero"/></clipPath><clipPath id="8386645bd1"><path d="M 369 411.917969 L 377 411.917969 L 377 524 L 369 524 Z M 369 411.917969 " clip-rule="nonzero"/></clipPath><clipPath id="da5e5d9d70"><path d="M 143 147 L 282 147 L 282 291 L 143 291 Z M 143 147 " clip-rule="nonzero"/></clipPath><clipPath id="93aa0a1d23"><path d="M 149.390625 72.921875 L 394.800781 306.789062 L 308.910156 396.917969 L 63.5 163.046875 Z M 149.390625 72.921875 " clip-rule="nonzero"/></clipPath><clipPath id="7cc25b100d"><path d="M 149.390625 72.921875 L 394.800781 306.789062 L 308.910156 396.917969 L 63.5 163.046875 Z M 149.390625 72.921875 " clip-rule="nonzero"/></clipPath><clipPath id="3cd41809d4"><path d="M 116 121 L 204 121 L 204 216 L 116 216 Z M 116 121 " clip-rule="nonzero"/></clipPath><clipPath id="ff3665459f"><path d="M 149.390625 72.921875 L 394.800781 306.789062 L 308.910156 396.917969 L 63.5 163.046875 Z M 149.390625 72.921875 " clip-rule="nonzero"/></clipPath><clipPath id="2436db98de"><path d="M 149.390625 72.921875 L 394.800781 306.789062 L 308.910156 396.917969 L 63.5 163.046875 Z M 149.390625 72.921875 " clip-rule="nonzero"/></clipPath><clipPath id="18986d9fc7"><path d="M 127 93 L 212 93 L 212 174 L 127 174 Z M 127 93 " clip-rule="nonzero"/></clipPath><clipPath id="81ba51482b"><path d="M 149.390625 72.921875 L 394.800781 306.789062 L 308.910156 396.917969 L 63.5 163.046875 Z M 149.390625 72.921875 " clip-rule="nonzero"/></clipPath><clipPath id="a186833636"><path d="M 149.390625 72.921875 L 394.800781 306.789062 L 308.910156 396.917969 L 63.5 163.046875 Z M 149.390625 72.921875 " clip-rule="nonzero"/></clipPath><clipPath id="6f8ce2741d"><path d="M 269 273 L 354 273 L 354 354 L 269 354 Z M 269 273 " clip-rule="nonzero"/></clipPath><clipPath id="20d48cd24f"><path d="M 149.390625 72.921875 L 394.800781 306.789062 L 308.910156 396.917969 L 63.5 163.046875 Z M 149.390625 72.921875 " clip-rule="nonzero"/></clipPath><clipPath id="e3d84f0292"><path d="M 149.390625 72.921875 L 394.800781 306.789062 L 308.910156 396.917969 L 63.5 163.046875 Z M 149.390625 72.921875 " clip-rule="nonzero"/></clipPath><clipPath id="6f68c14608"><path d="M 85 138 L 170 138 L 170 219 L 85 219 Z M 85 138 " clip-rule="nonzero"/></clipPath><clipPath id="c99da84ff9"><path d="M 149.390625 72.921875 L 394.800781 306.789062 L 308.910156 396.917969 L 63.5 163.046875 Z M 149.390625 72.921875 " clip-rule="nonzero"/></clipPath><clipPath id="8a47352aef"><path d="M 149.390625 72.921875 L 394.800781 306.789062 L 308.910156 396.917969 L 63.5 163.046875 Z M 149.390625 72.921875 " clip-rule="nonzero"/></clipPath><clipPath id="b7a7736b2a"><path d="M 229.277344 364.566406 L 260.578125 364.566406 L 260.578125 395.867188 L 229.277344 395.867188 Z M 229.277344 364.566406 " clip-rule="nonzero"/></clipPath><clipPath id="f1d5f89bd4"><path d="M 244.925781 364.566406 C 236.28125 364.566406 229.277344 371.574219 229.277344 380.214844 C 229.277344 388.859375 236.28125 395.867188 244.925781 395.867188 C 253.570312 395.867188 260.578125 388.859375 260.578125 380.214844 C 260.578125 371.574219 253.570312 364.566406 244.925781 364.566406 Z M 244.925781 364.566406 " clip-rule="nonzero"/></clipPath><clipPath id="8612d5c893"><path d="M 267.800781 272.304688 L 299.101562 272.304688 L 299.101562 303.605469 L 267.800781 303.605469 Z M 267.800781 272.304688 " clip-rule="nonzero"/></clipPath><clipPath id="67945b5743"><path d="M 283.449219 272.304688 C 274.804688 272.304688 267.800781 279.3125 267.800781 287.957031 C 267.800781 296.597656 274.804688 303.605469 283.449219 303.605469 C 292.09375 303.605469 299.101562 296.597656 299.101562 287.957031 C 299.101562 279.3125 292.09375 272.304688 283.449219 272.304688 Z M 283.449219 272.304688 " clip-rule="nonzero"/></clipPath><clipPath id="bf704baab5"><path d="M 357.347656 515.210938 L 388.648438 515.210938 L 388.648438 546.511719 L 357.347656 546.511719 Z M 357.347656 515.210938 " clip-rule="nonzero"/></clipPath><clipPath id="2c20a22470"><path d="M 372.996094 515.210938 C 364.355469 515.210938 357.347656 522.214844 357.347656 530.859375 C 357.347656 539.503906 364.355469 546.511719 372.996094 546.511719 C 381.640625 546.511719 388.648438 539.503906 388.648438 530.859375 C 388.648438 522.214844 381.640625 515.210938 372.996094 515.210938 Z M 372.996094 515.210938 " clip-rule="nonzero"/></clipPath><clipPath id="27e6acac57"><path d="M 310.285156 93.652344 L 435.535156 93.652344 L 435.535156 224.152344 L 310.285156 224.152344 Z M 310.285156 93.652344 " clip-rule="nonzero"/></clipPath><clipPath id="5be0796547"><path d="M 372.992188 224.152344 L 310.449219 93.339844 L 435.535156 93.339844 Z M 372.992188 224.152344 " clip-rule="nonzero"/></clipPath><clipPath id="8b8c770c00"><path d="M 450 138 L 603 138 L 603 294 L 450 294 Z M 450 138 " clip-rule="nonzero"/></clipPath><clipPath id="2b33bedb89"><path d="M 346.769531 303.066406 L 588.070312 61.765625 L 680.878906 154.574219 L 439.578125 395.871094 Z M 346.769531 303.066406 " clip-rule="nonzero"/></clipPath><clipPath id="47be651824"><path d="M 587.8125 62.019531 L 346.511719 303.320312 L 439.320312 396.128906 L 680.621094 154.828125 Z M 587.8125 62.019531 " clip-rule="nonzero"/></clipPath><clipPath id="e65cc66d1c"><path d="M 532 86 L 616 86 L 616 171 L 532 171 Z M 532 86 " clip-rule="nonzero"/></clipPath><clipPath id="d73dabbf6b"><path d="M 346.769531 303.066406 L 588.070312 61.765625 L 680.878906 154.574219 L 439.578125 395.871094 Z M 346.769531 303.066406 " clip-rule="nonzero"/></clipPath><clipPath id="263938917e"><path d="M 587.8125 62.019531 L 346.511719 303.320312 L 439.320312 396.128906 L 680.621094 154.828125 Z M 587.8125 62.019531 " clip-rule="nonzero"/></clipPath><clipPath id="bf4027e837"><path d="M 395 271 L 479 271 L 479 355 L 395 355 Z M 395 271 " clip-rule="nonzero"/></clipPath><clipPath id="240a357d22"><path d="M 346.769531 303.066406 L 588.070312 61.765625 L 680.878906 154.574219 L 439.578125 395.871094 Z M 346.769531 303.066406 " clip-rule="nonzero"/></clipPath><clipPath id="c361e7eaa3"><path d="M 587.8125 62.019531 L 346.511719 303.320312 L 439.320312 396.128906 L 680.621094 154.828125 Z M 587.8125 62.019531 " clip-rule="nonzero"/></clipPath><clipPath id="89475fc437"><path d="M 575 131 L 660 131 L 660 215 L 575 215 Z M 575 131 " clip-rule="nonzero"/></clipPath><clipPath id="713c31648c"><path d="M 346.769531 303.066406 L 588.070312 61.765625 L 680.878906 154.574219 L 439.578125 395.871094 Z M 346.769531 303.066406 " clip-rule="nonzero"/></clipPath><clipPath id="0bf0adcc80"><path d="M 587.8125 62.019531 L 346.511719 303.320312 L 439.320312 396.128906 L 680.621094 154.828125 Z M 587.8125 62.019531 " clip-rule="nonzero"/></clipPath><clipPath id="4b4e52b0b2"><path d="M 134 456 L 289 456 L 289 609 L 134 609 Z M 134 456 " clip-rule="nonzero"/></clipPath><clipPath id="baf7e8ae8c"><path d="M 57.242188 592.945312 L 298.542969 351.644531 L 391.351562 444.453125 L 150.050781 685.753906 Z M 57.242188 592.945312 " clip-rule="nonzero"/></clipPath><clipPath id="2a099f953d"><path d="M 57.242188 592.945312 L 298.542969 351.644531 L 391.351562 444.453125 L 150.050781 685.753906 Z M 57.242188 592.945312 " clip-rule="nonzero"/></clipPath><clipPath id="5c5b80091b"><path d="M 82 537 L 166 537 L 166 622 L 82 622 Z M 82 537 " clip-rule="nonzero"/></clipPath><clipPath id="19cd50ed3b"><path d="M 57.242188 592.945312 L 298.542969 351.644531 L 391.351562 444.453125 L 150.050781 685.753906 Z M 57.242188 592.945312 " clip-rule="nonzero"/></clipPath><clipPath id="66cc03c869"><path d="M 57.242188 592.945312 L 298.542969 351.644531 L 391.351562 444.453125 L 150.050781 685.753906 Z M 57.242188 592.945312 " clip-rule="nonzero"/></clipPath><clipPath id="1c739e134d"><path d="M 266 400 L 350 400 L 350 484 L 266 484 Z M 266 400 " clip-rule="nonzero"/></clipPath><clipPath id="1be2c133e7"><path d="M 57.242188 592.945312 L 298.542969 351.644531 L 391.351562 444.453125 L 150.050781 685.753906 Z M 57.242188 592.945312 " clip-rule="nonzero"/></clipPath><clipPath id="43ec2b3118"><path d="M 57.242188 592.945312 L 298.542969 351.644531 L 391.351562 444.453125 L 150.050781 685.753906 Z M 57.242188 592.945312 " clip-rule="nonzero"/></clipPath><clipPath id="2a0a7693f0"><path d="M 126 581 L 211 581 L 211 665 L 126 665 Z M 126 581 " clip-rule="nonzero"/></clipPath><clipPath id="075a985806"><path d="M 57.242188 592.945312 L 298.542969 351.644531 L 391.351562 444.453125 L 150.050781 685.753906 Z M 57.242188 592.945312 " clip-rule="nonzero"/></clipPath><clipPath id="10b091b645"><path d="M 57.242188 592.945312 L 298.542969 351.644531 L 391.351562 444.453125 L 150.050781 685.753906 Z M 57.242188 592.945312 " clip-rule="nonzero"/></clipPath><clipPath id="bc50112c89"><path d="M 267.800781 451.769531 L 299.101562 451.769531 L 299.101562 483.070312 L 267.800781 483.070312 Z M 267.800781 451.769531 " clip-rule="nonzero"/></clipPath><clipPath id="a2bb701a85"><path d="M 283.449219 451.769531 C 274.804688 451.769531 267.800781 458.777344 267.800781 467.417969 C 267.800781 476.0625 274.804688 483.070312 283.449219 483.070312 C 292.09375 483.070312 299.101562 476.0625 299.101562 467.417969 C 299.101562 458.777344 292.09375 451.769531 283.449219 451.769531 Z M 283.449219 451.769531 " clip-rule="nonzero"/></clipPath></defs><g clip-path="url(#a4f9b70c38)"><path fill="#ffffff" d="M 372.996094 414.386719 C 353.066406 414.386719 336.925781 398.132812 336.925781 378.316406 C 336.925781 358.5 353.066406 342.246094 372.996094 342.246094 C 392.921875 342.246094 409.066406 358.390625 409.066406 378.316406 C 409.066406 398.246094 392.8125 414.386719 372.996094 414.386719 Z M 372.996094 344.472656 C 354.292969 344.472656 339.152344 359.613281 339.152344 378.316406 C 339.152344 397.019531 354.292969 412.160156 372.996094 412.160156 C 391.699219 412.160156 406.839844 397.019531 406.839844 378.316406 C 406.839844 359.613281 391.585938 344.472656 372.996094 344.472656 Z M 372.996094 344.472656 " fill-opacity="1" fill-rule="nonzero"/></g><path stroke-linecap="butt" transform="matrix(0, -0.75, 0.75, 0, 369.24148, 342.242171)" fill="none" stroke-linejoin="miter" d="M -0.0000226381 5.000944 L 168.343736 5.000944 " stroke="#ffffff" stroke-width="10" stroke-opacity="1" stroke-miterlimit="4"/><path stroke-linecap="butt" transform="matrix(0, -0.75, 0.75, 0, 369.242709, 93.332639)" fill="none" stroke-linejoin="miter" d="M 0.000809869 4.999305 L 124.448733 4.999305 " stroke="#ffffff" stroke-width="10" stroke-opacity="1" stroke-miterlimit="4"/><g clip-path="url(#cc180c7a4d)"><path fill="#ffffff" d="M 641.019531 326.1875 C 633.28125 344.105469 624.996094 363.132812 624.648438 381.054688 C 624.304688 399.125 632.011719 415.644531 639.117188 431.03125 L 642.792969 424.726562 C 627.503906 426 612.4375 427.25 598.554688 427.292969 C 583.550781 427.335938 570.378906 425.957031 560.105469 421.929688 C 540.472656 414.238281 530.167969 396.429688 519.011719 376.796875 L 518.8125 381.511719 C 531.382812 363.140625 543.121094 346.199219 563.3125 338.269531 C 576.355469 333.148438 593.285156 331.652344 612.1875 331.597656 C 622.773438 331.566406 633.800781 331.980469 644.9375 332.402344 L 641.019531 326.1875 M 649.195312 329.714844 C 649.777344 328.367188 649.65625 326.816406 648.871094 325.574219 C 648.089844 324.332031 646.742188 323.558594 645.273438 323.5 C 634.171875 323.082031 622.957031 322.65625 612.160156 322.691406 C 593.074219 322.746094 574.730469 324.21875 560.054688 329.980469 C 536.921875 339.066406 523.777344 358.488281 511.464844 376.480469 C 510.503906 377.886719 510.425781 379.714844 511.265625 381.195312 C 522.113281 400.28125 533.808594 421.191406 556.855469 430.222656 C 568.707031 434.867188 583.222656 436.246094 598.582031 436.199219 C 612.890625 436.15625 628.320312 434.867188 643.53125 433.601562 C 644.976562 433.484375 646.277344 432.664062 647.007812 431.40625 C 647.738281 430.152344 647.8125 428.617188 647.203125 427.300781 C 639.925781 411.53125 633.253906 396.898438 633.554688 381.226562 C 633.859375 365.410156 641.25 348.117188 649.195312 329.714844 Z M 649.195312 329.714844 " fill-opacity="1" fill-rule="nonzero"/></g><g clip-path="url(#a9f43fd555)"><path fill="#ffffff" d="M 640.65625 351.992188 L 742.734375 351.992188 C 745.691406 351.992188 748.089844 349.59375 748.089844 346.636719 C 748.089844 343.679688 745.691406 341.28125 742.734375 341.28125 L 640.65625 341.28125 C 637.699219 341.28125 635.300781 343.679688 635.300781 346.636719 C 635.300781 349.59375 637.699219 351.992188 640.65625 351.992188 Z M 640.65625 351.992188 " fill-opacity="0.996" fill-rule="nonzero"/></g><g clip-path="url(#056d32d045)"><path fill="#ffffff" d="M 411.621094 384.222656 L 513.703125 384.222656 C 516.660156 384.222656 519.054688 381.824219 519.054688 378.867188 C 519.054688 375.910156 516.660156 373.515625 513.703125 373.515625 L 411.621094 373.515625 C 408.664062 373.515625 406.269531 375.910156 406.269531 378.867188 C 406.269531 381.824219 408.664062 384.222656 411.621094 384.222656 Z M 411.621094 384.222656 " fill-opacity="0.996" fill-rule="nonzero"/></g><path fill="#ffffff" d="M 639.921875 413.761719 L 742 413.761719 C 744.957031 413.761719 747.355469 411.363281 747.355469 408.40625 C 747.355469 405.449219 744.957031 403.054688 742 403.054688 L 639.921875 403.054688 C 636.964844 403.054688 634.566406 405.449219 634.566406 408.40625 C 634.566406 411.363281 636.964844 413.761719 639.921875 413.761719 Z M 639.921875 413.761719 " fill-opacity="0.996" fill-rule="nonzero"/><g clip-path="url(#9f7b474401)"><g clip-path="url(#28e01f1abc)"><g clip-path="url(#5c85de9d30)"><path fill="#ffffff" d="M 598.222656 531.277344 C 580.09375 538.0625 560.792969 545.21875 547.742188 557.289062 C 534.582031 569.460938 528.070312 586.332031 521.953125 601.988281 L 528.984375 600.28125 C 517.566406 590.222656 506.316406 580.3125 496.742188 570.414062 C 486.398438 559.71875 478.332031 549.351562 474.148438 539.238281 C 466.152344 519.914062 471.800781 500.304688 478.171875 478.828125 L 474.664062 481.929688 C 496.441406 478.289062 516.621094 475.039062 536.167969 484.023438 C 548.796875 489.828125 561.503906 500.90625 574.539062 514.382812 C 581.835938 521.925781 589.121094 530.097656 596.476562 538.351562 L 598.222656 531.277344 M 601.320312 539.550781 C 602.683594 539.039062 603.710938 537.886719 604.058594 536.472656 C 604.410156 535.058594 604.039062 533.5625 603.070312 532.476562 C 595.738281 524.25 588.332031 515.941406 580.886719 508.242188 C 567.726562 494.632812 554.066406 482.527344 539.855469 475.996094 C 517.460938 465.703125 494.535156 469.652344 473.207031 473.21875 C 471.542969 473.496094 470.183594 474.699219 469.703125 476.316406 C 463.511719 497.191406 456.601562 519.929688 465.984375 542.613281 C 470.808594 554.28125 479.804688 565.605469 490.394531 576.554688 C 500.257812 586.757812 511.789062 596.90625 523.148438 606.910156 C 524.226562 607.863281 525.707031 608.226562 527.105469 607.886719 C 528.507812 607.546875 529.65625 606.546875 530.179688 605.203125 C 536.449219 589.160156 542.328125 574.332031 553.738281 563.773438 C 565.253906 553.121094 582.699219 546.519531 601.320312 539.550781 Z M 601.320312 539.550781 " fill-opacity="1" fill-rule="nonzero"/></g></g></g><g clip-path="url(#f536e9928e)"><g clip-path="url(#2bd4ebf968)"><g clip-path="url(#11f9d7ee01)"><path fill="#ffffff" d="M 621.390625 548.664062 L 623.695312 547.363281 C 602.046875 553.15625 578.472656 559.328125 563.488281 573.21875 C 548.367188 587.230469 542.507812 608.558594 537.058594 627.882812 C 536.265625 630.703125 537.90625 633.636719 540.730469 634.433594 C 543.554688 635.230469 546.488281 633.585938 547.28125 630.765625 C 552.945312 610.679688 558.191406 592.605469 570.707031 581.007812 C 583.351562 569.285156 603.9375 563.644531 626.441406 557.621094 C 627.308594 557.390625 628.101562 556.941406 628.75 556.320312 C 630.863281 554.289062 630.929688 550.925781 628.898438 548.8125 C 626.863281 546.695312 623.503906 546.632812 621.390625 548.664062 Z M 621.390625 548.664062 " fill-opacity="0.996" fill-rule="nonzero"/></g></g></g><g clip-path="url(#ae98800e7e)"><g clip-path="url(#bb0a042e61)"><g clip-path="url(#90ddf825ed)"><path fill="#ffffff" d="M 579.523438 548.753906 L 649.691406 621.742188 C 651.726562 623.855469 655.085938 623.921875 657.199219 621.890625 C 659.316406 619.859375 659.382812 616.496094 657.347656 614.382812 L 587.179688 541.394531 C 585.148438 539.28125 581.785156 539.214844 579.671875 541.246094 C 577.558594 543.28125 577.492188 546.640625 579.523438 548.753906 Z M 579.523438 548.753906 " fill-opacity="0.996" fill-rule="nonzero"/></g></g></g><g clip-path="url(#6b5b300494)"><g clip-path="url(#9b06c07f77)"><g clip-path="url(#d7878a3764)"><path fill="#ffffff" d="M 399.042969 407.152344 L 469.210938 480.140625 C 471.246094 482.253906 474.605469 482.320312 476.722656 480.285156 C 478.835938 478.253906 478.902344 474.890625 476.867188 472.777344 L 406.699219 399.789062 C 404.667969 397.675781 401.304688 397.609375 399.191406 399.644531 C 397.078125 401.675781 397.011719 405.035156 399.042969 407.152344 Z M 399.042969 407.152344 " fill-opacity="0.996" fill-rule="nonzero"/></g></g></g><g clip-path="url(#742cff5446)"><g clip-path="url(#36e7ccf27c)"><g clip-path="url(#9510ff36e5)"><path fill="#ffffff" d="M 534.855469 590.691406 L 605.023438 663.679688 C 607.054688 665.792969 610.417969 665.859375 612.53125 663.828125 C 614.644531 661.792969 614.710938 658.433594 612.679688 656.316406 L 542.511719 583.332031 C 540.476562 581.214844 537.117188 581.148438 535 583.183594 C 532.886719 585.214844 532.820312 588.578125 534.855469 590.691406 Z M 534.855469 590.691406 " fill-opacity="0.996" fill-rule="nonzero"/></g></g></g><g clip-path="url(#2af1f24e1c)"><path fill="#ffffff" d="M 106.265625 326.605469 C 113.941406 344.386719 122.167969 363.269531 122.511719 381.058594 C 122.855469 398.988281 115.203125 415.382812 108.152344 430.652344 L 104.507812 424.398438 C 119.679688 425.660156 134.628906 426.902344 148.40625 426.941406 C 163.296875 426.988281 176.367188 425.617188 186.566406 421.621094 C 206.046875 413.988281 216.273438 396.3125 227.347656 376.828125 L 227.542969 381.507812 C 215.066406 363.277344 203.421875 346.464844 183.382812 338.597656 C 170.4375 333.511719 153.636719 332.027344 134.878906 331.972656 C 124.375 331.941406 113.429688 332.355469 102.375 332.773438 L 106.265625 326.605469 M 98.152344 330.105469 C 97.574219 328.769531 97.695312 327.230469 98.472656 326 C 99.25 324.765625 100.585938 323.996094 102.042969 323.941406 C 113.0625 323.523438 124.1875 323.101562 134.902344 323.132812 C 153.847656 323.191406 172.050781 324.648438 186.613281 330.371094 C 209.574219 339.386719 222.617188 358.660156 234.835938 376.515625 C 235.789062 377.910156 235.867188 379.726562 235.03125 381.195312 C 224.269531 400.136719 212.660156 420.886719 189.792969 429.851562 C 178.027344 434.460938 163.625 435.824219 148.378906 435.78125 C 134.183594 435.738281 118.867188 434.460938 103.773438 433.203125 C 102.335938 433.085938 101.050781 432.273438 100.324219 431.027344 C 99.597656 429.78125 99.523438 428.257812 100.128906 426.949219 C 107.351562 411.300781 113.972656 396.777344 113.675781 381.226562 C 113.371094 365.53125 106.035156 348.371094 98.152344 330.105469 Z M 98.152344 330.105469 " fill-opacity="1" fill-rule="nonzero"/></g><path fill="#ffffff" d="M 261.863281 380.265625 L 261.722656 382.316406 C 261.070312 386.441406 259.160156 389.742188 255.992188 392.214844 C 252.800781 394.6875 249.042969 395.6875 244.71875 395.222656 C 240.59375 394.570312 237.292969 392.660156 234.820312 389.488281 C 234.027344 388.464844 233.375 387.347656 232.863281 386.140625 L 232.214844 384.277344 C 231.859375 382.996094 231.679688 381.660156 231.675781 380.265625 C 231.785156 375.992188 233.257812 372.433594 236.097656 369.59375 C 238.933594 366.753906 242.492188 365.28125 246.769531 365.171875 C 251.042969 365.28125 254.601562 366.753906 257.441406 369.59375 C 260.28125 372.433594 261.753906 375.992188 261.863281 380.265625 " fill-opacity="1" fill-rule="nonzero"/><path fill="#ffffff" d="M 106.628906 352.210938 L 5.324219 352.210938 C 2.386719 352.210938 0.0078125 349.832031 0.0078125 346.898438 C 0.0078125 343.964844 2.386719 341.585938 5.324219 341.585938 L 106.628906 341.585938 C 109.5625 341.585938 111.941406 343.964844 111.941406 346.898438 C 111.941406 349.832031 109.5625 352.210938 106.628906 352.210938 Z M 106.628906 352.210938 " fill-opacity="0.996" fill-rule="nonzero"/><g clip-path="url(#5482732198)"><path fill="#ffffff" d="M 333.917969 384.199219 L 232.617188 384.199219 C 229.679688 384.199219 227.300781 381.820312 227.300781 378.886719 C 227.300781 375.949219 229.679688 373.570312 232.617188 373.570312 L 333.917969 373.570312 C 336.855469 373.570312 339.234375 375.949219 339.234375 378.886719 C 339.234375 381.820312 336.855469 384.199219 333.917969 384.199219 Z M 333.917969 384.199219 " fill-opacity="0.996" fill-rule="nonzero"/></g><path fill="#ffffff" d="M 107.355469 413.511719 L 6.050781 413.511719 C 3.117188 413.511719 0.738281 411.132812 0.738281 408.199219 C 0.738281 405.265625 3.117188 402.886719 6.050781 402.886719 L 107.355469 402.886719 C 110.289062 402.886719 112.667969 405.265625 112.667969 408.199219 C 112.667969 411.132812 110.289062 413.511719 107.355469 413.511719 Z M 107.355469 413.511719 " fill-opacity="0.996" fill-rule="nonzero"/><g clip-path="url(#1617f68e80)"><path fill="#ffffff" d="M 434.5 644.984375 C 434.15625 645.578125 433.691406 646.042969 433.101562 646.382812 C 432.511719 646.726562 431.875 646.894531 431.191406 646.894531 L 314.714844 646.894531 C 314.378906 646.894531 314.050781 646.851562 313.726562 646.765625 C 313.402344 646.679688 313.09375 646.550781 312.804688 646.382812 C 312.515625 646.214844 312.25 646.015625 312.015625 645.777344 C 311.777344 645.539062 311.574219 645.277344 311.40625 644.984375 C 311.238281 644.695312 311.113281 644.386719 311.027344 644.066406 C 310.9375 643.742188 310.894531 643.410156 310.894531 643.074219 C 310.894531 642.742188 310.9375 642.410156 311.027344 642.085938 C 311.113281 641.761719 311.238281 641.457031 311.40625 641.167969 L 369.644531 540.296875 C 369.8125 540.007812 370.015625 539.746094 370.253906 539.507812 C 370.488281 539.269531 370.753906 539.070312 371.042969 538.902344 C 371.332031 538.734375 371.640625 538.605469 371.964844 538.519531 C 372.289062 538.433594 372.617188 538.390625 372.953125 538.390625 C 373.289062 538.390625 373.617188 538.433594 373.941406 538.519531 C 374.265625 538.605469 374.574219 538.734375 374.863281 538.902344 C 375.152344 539.070312 375.417969 539.269531 375.652344 539.507812 C 375.890625 539.746094 376.09375 540.007812 376.261719 540.296875 L 434.5 641.167969 C 434.839844 641.757812 435.011719 642.394531 435.011719 643.074219 C 435.011719 643.757812 434.839844 644.394531 434.5 644.984375 Z M 424.574219 639.257812 L 372.953125 549.847656 L 321.332031 639.257812 Z M 424.574219 639.257812 " fill-opacity="1" fill-rule="nonzero"/></g><path fill="#ffffff" d="M 376.769531 747.097656 C 376.769531 747.605469 376.671875 748.089844 376.480469 748.558594 C 376.285156 749.027344 376.007812 749.441406 375.652344 749.796875 C 375.292969 750.15625 374.878906 750.433594 374.410156 750.625 C 373.945312 750.820312 373.457031 750.917969 372.949219 750.917969 C 372.441406 750.917969 371.957031 750.820312 371.488281 750.625 C 371.019531 750.433594 370.605469 750.15625 370.25 749.796875 C 369.890625 749.441406 369.613281 749.027344 369.421875 748.558594 C 369.226562 748.089844 369.128906 747.605469 369.128906 747.097656 L 369.128906 643.082031 C 369.128906 642.574219 369.226562 642.085938 369.421875 641.621094 C 369.613281 641.152344 369.890625 640.738281 370.25 640.378906 C 370.605469 640.023438 371.019531 639.746094 371.488281 639.550781 C 371.957031 639.359375 372.441406 639.261719 372.949219 639.261719 C 373.457031 639.261719 373.945312 639.359375 374.410156 639.550781 C 374.878906 639.746094 375.292969 640.023438 375.652344 640.378906 C 376.007812 640.738281 376.285156 641.152344 376.480469 641.621094 C 376.671875 642.085938 376.769531 642.574219 376.769531 643.082031 Z M 376.769531 747.097656 " fill-opacity="1" fill-rule="nonzero"/><g clip-path="url(#8386645bd1)"><path fill="#ffffff" d="M 376.769531 519.476562 C 376.769531 519.984375 376.671875 520.46875 376.480469 520.9375 C 376.285156 521.40625 376.007812 521.820312 375.652344 522.179688 C 375.292969 522.535156 374.878906 522.8125 374.410156 523.007812 C 373.945312 523.199219 373.457031 523.296875 372.949219 523.296875 C 372.441406 523.296875 371.957031 523.199219 371.488281 523.007812 C 371.019531 522.8125 370.605469 522.535156 370.25 522.179688 C 369.890625 521.820312 369.613281 521.40625 369.421875 520.9375 C 369.226562 520.46875 369.128906 519.984375 369.128906 519.476562 L 369.128906 415.460938 C 369.128906 414.953125 369.226562 414.464844 369.421875 414 C 369.613281 413.53125 369.890625 413.117188 370.25 412.757812 C 370.605469 412.402344 371.019531 412.125 371.488281 411.929688 C 371.957031 411.738281 372.441406 411.640625 372.949219 411.640625 C 373.457031 411.640625 373.945312 411.738281 374.410156 411.929688 C 374.878906 412.125 375.292969 412.402344 375.652344 412.757812 C 376.007812 413.117188 376.285156 413.53125 376.480469 414 C 376.671875 414.464844 376.769531 414.953125 376.769531 415.460938 Z M 376.769531 519.476562 " fill-opacity="1" fill-rule="nonzero"/></g><path fill="#ffffff" d="M 388.136719 530.84375 C 388.136719 539.183594 381.292969 546.027344 372.949219 546.027344 C 364.609375 546.027344 357.769531 539.183594 357.769531 530.84375 C 357.769531 522.5 364.609375 515.65625 372.949219 515.65625 C 381.292969 515.65625 388.136719 522.5 388.136719 530.84375 Z M 380.496094 530.84375 C 380.496094 526.628906 377.160156 523.296875 372.949219 523.296875 C 368.738281 523.296875 365.410156 526.628906 365.410156 530.84375 C 365.410156 535.054688 368.738281 538.386719 372.949219 538.386719 C 377.160156 538.386719 380.496094 535.054688 380.496094 530.84375 Z M 380.496094 530.84375 " fill-opacity="1" fill-rule="nonzero"/><g clip-path="url(#da5e5d9d70)"><g clip-path="url(#93aa0a1d23)"><g clip-path="url(#7cc25b100d)"><path fill="#ffffff" d="M 219.46875 153.472656 C 212.761719 171.628906 205.691406 190.964844 193.675781 204.070312 C 181.5625 217.28125 164.722656 223.863281 149.09375 230.054688 L 150.769531 223.011719 C 160.875 234.386719 170.835938 245.59375 180.773438 255.121094 C 191.515625 265.421875 201.917969 273.441406 212.054688 277.582031 C 231.410156 285.492188 250.996094 279.757812 272.441406 273.292969 L 269.355469 276.8125 C 272.902344 255.023438 276.066406 234.828125 266.996094 215.320312 C 261.132812 202.714844 250 190.058594 236.46875 177.082031 C 228.890625 169.820312 220.6875 162.570312 212.402344 155.253906 L 219.46875 153.472656 M 211.183594 150.414062 C 211.6875 149.046875 212.832031 148.015625 214.246094 147.660156 C 215.660156 147.304688 217.15625 147.667969 218.25 148.632812 C 226.507812 155.929688 234.847656 163.296875 242.578125 170.707031 C 256.246094 183.808594 268.410156 197.414062 275.003906 211.597656 C 285.398438 233.949219 281.546875 256.886719 278.074219 278.230469 C 277.804688 279.898438 276.609375 281.265625 274.992188 281.75 C 254.144531 288.035156 231.4375 295.042969 208.710938 285.761719 C 197.023438 280.984375 185.660156 272.042969 174.664062 261.5 C 164.417969 251.679688 154.21875 240.195312 144.164062 228.878906 C 143.207031 227.804688 142.835938 226.324219 143.171875 224.925781 C 143.503906 223.523438 144.5 222.371094 145.839844 221.839844 C 161.855469 215.5 176.660156 209.554688 187.167969 198.097656 C 197.769531 186.535156 204.292969 169.0625 211.183594 150.414062 Z M 211.183594 150.414062 " fill-opacity="1" fill-rule="nonzero"/></g></g></g><g clip-path="url(#3cd41809d4)"><g clip-path="url(#ff3665459f)"><g clip-path="url(#2436db98de)"><path fill="#ffffff" d="M 201.980469 130.382812 L 203.273438 128.070312 C 197.574219 149.746094 191.503906 173.347656 177.679688 188.394531 C 163.734375 203.574219 142.429688 209.527344 123.132812 215.058594 C 120.3125 215.867188 117.371094 214.238281 116.5625 211.417969 C 115.757812 208.597656 117.386719 205.65625 120.207031 204.847656 C 140.265625 199.101562 158.316406 193.773438 169.859375 181.207031 C 181.523438 168.511719 187.078125 147.902344 193 125.371094 C 193.230469 124.503906 193.671875 123.707031 194.292969 123.058594 L 194.292969 123.054688 C 196.316406 120.933594 199.675781 120.851562 201.800781 122.875 C 203.921875 124.898438 204.003906 128.261719 201.980469 130.382812 Z M 201.980469 130.382812 " fill-opacity="0.996" fill-rule="nonzero"/></g></g></g><g clip-path="url(#18986d9fc7)"><g clip-path="url(#81ba51482b)"><g clip-path="url(#a186833636)"><path fill="#ffffff" d="M 202.074219 172.25 L 128.777344 102.402344 C 126.65625 100.378906 126.574219 97.015625 128.597656 94.894531 C 130.621094 92.769531 133.980469 92.6875 136.105469 94.710938 L 209.398438 164.558594 C 211.523438 166.582031 211.601562 169.945312 209.582031 172.066406 C 207.558594 174.191406 204.195312 174.273438 202.074219 172.25 Z M 202.074219 172.25 " fill-opacity="0.996" fill-rule="nonzero"/></g></g></g><g clip-path="url(#6f8ce2741d)"><g clip-path="url(#20d48cd24f)"><g clip-path="url(#e3d84f0292)"><path fill="#ffffff" d="M 344.464844 352.105469 L 271.171875 282.257812 C 269.046875 280.234375 268.96875 276.875 270.992188 274.75 C 273.015625 272.628906 276.375 272.546875 278.5 274.570312 L 351.792969 344.417969 C 353.914062 346.441406 353.996094 349.800781 351.972656 351.925781 C 349.949219 354.046875 346.589844 354.128906 344.464844 352.105469 Z M 344.464844 352.105469 " fill-opacity="0.996" fill-rule="nonzero"/></g></g></g><g clip-path="url(#6f68c14608)"><g clip-path="url(#c99da84ff9)"><g clip-path="url(#8a47352aef)"><path fill="#ffffff" d="M 160.332031 217.101562 L 87.039062 147.253906 C 84.914062 145.230469 84.835938 141.871094 86.859375 139.746094 C 88.882812 137.625 92.242188 137.542969 94.367188 139.566406 L 167.660156 209.414062 C 169.78125 211.4375 169.863281 214.796875 167.839844 216.921875 C 165.816406 219.042969 162.457031 219.125 160.332031 217.101562 Z M 160.332031 217.101562 " fill-opacity="0.996" fill-rule="nonzero"/></g></g></g><g clip-path="url(#b7a7736b2a)"><g clip-path="url(#f1d5f89bd4)"><path fill="#ffffff" d="M 229.277344 364.566406 L 260.578125 364.566406 L 260.578125 395.867188 L 229.277344 395.867188 Z M 229.277344 364.566406 " fill-opacity="1" fill-rule="nonzero"/></g></g><g clip-path="url(#8612d5c893)"><g clip-path="url(#67945b5743)"><path fill="#ffffff" d="M 267.800781 272.304688 L 299.101562 272.304688 L 299.101562 303.605469 L 267.800781 303.605469 Z M 267.800781 272.304688 " fill-opacity="1" fill-rule="nonzero"/></g></g><g clip-path="url(#bf704baab5)"><g clip-path="url(#2c20a22470)"><path fill="#ffffff" d="M 357.347656 515.210938 L 388.648438 515.210938 L 388.648438 546.511719 L 357.347656 546.511719 Z M 357.347656 515.210938 " fill-opacity="1" fill-rule="nonzero"/></g></g><g clip-path="url(#27e6acac57)"><g clip-path="url(#5be0796547)"><path stroke-linecap="butt" transform="matrix(-0.75, 0, 0, -0.75, 435.536117, 224.152567)" fill="none" stroke-linejoin="miter" d="M 83.391911 0.000297235 L 166.78254 174.416972 L 0.00128157 174.416972 Z M 83.391911 0.000297235 " stroke="#ffffff" stroke-width="20" stroke-opacity="1" stroke-miterlimit="4"/></g></g><g clip-path="url(#8b8c770c00)"><g clip-path="url(#2b33bedb89)"><g clip-path="url(#47be651824)"><path fill="#ffffff" d="M 510.851562 147.671875 L 594.121094 231.226562 L 593.933594 224.128906 C 589.679688 228.871094 585.457031 233.585938 581.222656 238.175781 C 564.371094 256.433594 547.992188 271.957031 530.757812 278.757812 C 509.300781 287.230469 486.34375 282.257812 473.613281 268.625 C 460.878906 254.988281 457.382812 231.582031 466.0625 209.976562 C 470.796875 198.191406 479.210938 186.871094 489.660156 175.550781 C 498.269531 166.21875 508.066406 157.09375 518.035156 147.804688 L 510.851562 147.671875 M 518.175781 140.371094 C 516.207031 138.394531 513.027344 138.335938 510.988281 140.238281 C 501.074219 149.472656 490.980469 158.867188 482.058594 168.535156 C 471.261719 180.238281 461.882812 192.636719 456.46875 206.121094 C 446.613281 230.640625 450.03125 258.523438 466.054688 275.683594 C 482.082031 292.847656 509.722656 298.183594 534.554688 288.378906 C 554.242188 280.605469 572.046875 263.367188 588.824219 245.1875 C 593.117188 240.535156 597.394531 235.761719 601.632812 231.027344 C 603.464844 228.988281 603.382812 225.871094 601.445312 223.929688 Z M 518.175781 140.371094 " fill-opacity="1" fill-rule="nonzero"/></g></g></g><g clip-path="url(#e65cc66d1c)"><g clip-path="url(#d73dabbf6b)"><g clip-path="url(#263938917e)"><path fill="#ffffff" d="M 541.671875 168.832031 L 614.335938 96.167969 C 616.4375 94.0625 616.4375 90.652344 614.335938 88.546875 C 612.230469 86.441406 608.816406 86.441406 606.710938 88.546875 L 534.050781 161.207031 C 531.945312 163.3125 531.945312 166.726562 534.050781 168.832031 C 536.152344 170.9375 539.566406 170.9375 541.671875 168.832031 Z M 541.671875 168.832031 " fill-opacity="0.996" fill-rule="nonzero"/></g></g></g><g clip-path="url(#bf4027e837)"><g clip-path="url(#240a357d22)"><g clip-path="url(#c361e7eaa3)"><path fill="#ffffff" d="M 404.417969 353.105469 L 477.082031 280.441406 C 479.183594 278.335938 479.183594 274.925781 477.082031 272.820312 C 474.976562 270.714844 471.5625 270.714844 469.457031 272.820312 L 396.796875 345.480469 C 394.691406 347.585938 394.691406 351 396.796875 353.105469 C 398.902344 355.210938 402.3125 355.210938 404.417969 353.105469 Z M 404.417969 353.105469 " fill-opacity="0.996" fill-rule="nonzero"/></g></g></g><g clip-path="url(#89475fc437)"><g clip-path="url(#713c31648c)"><g clip-path="url(#0bf0adcc80)"><path fill="#ffffff" d="M 585.117188 213.324219 L 657.78125 140.660156 C 659.886719 138.554688 659.886719 135.140625 657.78125 133.039062 C 655.675781 130.933594 652.265625 130.933594 650.160156 133.039062 L 577.496094 205.699219 C 575.390625 207.804688 575.390625 211.21875 577.496094 213.324219 C 579.601562 215.425781 583.015625 215.425781 585.117188 213.324219 Z M 585.117188 213.324219 " fill-opacity="0.996" fill-rule="nonzero"/></g></g></g><g clip-path="url(#4b4e52b0b2)"><g clip-path="url(#baf7e8ae8c)"><g clip-path="url(#2a099f953d)"><path fill="#ffffff" d="M 142.890625 515.980469 L 226.449219 599.25 L 219.347656 599.0625 C 224.09375 594.8125 228.808594 590.585938 233.394531 586.355469 C 251.65625 569.503906 267.175781 553.125 273.980469 535.890625 C 282.449219 514.433594 277.480469 491.472656 263.847656 478.746094 C 250.210938 466.011719 226.804688 462.511719 205.195312 471.195312 C 193.410156 475.929688 182.089844 484.34375 170.769531 494.789062 C 161.441406 503.402344 152.3125 513.195312 143.023438 523.167969 L 142.890625 515.980469 M 135.589844 523.304688 C 133.617188 521.339844 133.558594 518.160156 135.457031 516.121094 C 144.691406 506.207031 154.089844 496.113281 163.757812 487.191406 C 175.457031 476.394531 187.859375 467.015625 201.34375 461.597656 C 225.863281 451.746094 253.746094 455.164062 270.90625 471.1875 C 288.070312 487.214844 293.402344 514.851562 283.597656 539.6875 C 275.828125 559.375 258.585938 577.175781 240.410156 593.953125 C 235.757812 598.246094 230.980469 602.523438 226.25 606.765625 C 224.207031 608.59375 221.089844 608.511719 219.148438 606.578125 Z M 135.589844 523.304688 " fill-opacity="1" fill-rule="nonzero"/></g></g></g><g clip-path="url(#5c5b80091b)"><g clip-path="url(#19cd50ed3b)"><g clip-path="url(#66cc03c869)"><path fill="#ffffff" d="M 164.050781 546.800781 L 91.390625 619.464844 C 89.285156 621.570312 85.871094 621.570312 83.765625 619.464844 C 81.660156 617.359375 81.660156 613.949219 83.765625 611.84375 L 156.429688 539.179688 C 158.535156 537.074219 161.945312 537.074219 164.050781 539.179688 C 166.15625 541.285156 166.15625 544.699219 164.050781 546.800781 Z M 164.050781 546.800781 " fill-opacity="0.996" fill-rule="nonzero"/></g></g></g><g clip-path="url(#1c739e134d)"><g clip-path="url(#1be2c133e7)"><g clip-path="url(#43ec2b3118)"><path fill="#ffffff" d="M 348.324219 409.550781 L 275.660156 482.210938 C 273.558594 484.316406 270.144531 484.316406 268.039062 482.210938 C 265.933594 480.105469 265.933594 476.695312 268.039062 474.589844 L 340.703125 401.925781 C 342.808594 399.820312 346.21875 399.820312 348.324219 401.925781 C 350.429688 404.03125 350.429688 407.445312 348.324219 409.550781 Z M 348.324219 409.550781 " fill-opacity="0.996" fill-rule="nonzero"/></g></g></g><g clip-path="url(#2a0a7693f0)"><g clip-path="url(#075a985806)"><g clip-path="url(#10b091b645)"><path fill="#ffffff" d="M 208.542969 590.25 L 135.878906 662.914062 C 133.777344 665.019531 130.363281 665.019531 128.257812 662.914062 C 126.152344 660.808594 126.152344 657.394531 128.257812 655.289062 L 200.921875 582.628906 C 203.027344 580.523438 206.4375 580.523438 208.542969 582.628906 C 210.648438 584.734375 210.648438 588.144531 208.542969 590.25 Z M 208.542969 590.25 " fill-opacity="0.996" fill-rule="nonzero"/></g></g></g><g clip-path="url(#bc50112c89)"><g clip-path="url(#a2bb701a85)"><path fill="#ffffff" d="M 267.800781 451.769531 L 299.101562 451.769531 L 299.101562 483.070312 L 267.800781 483.070312 Z M 267.800781 451.769531 " fill-opacity="1" fill-rule="nonzero"/></g></g><g fill="#ffffff" fill-opacity="1"><g transform="translate(349.684145, 392.255309)"><g><path d="M 17.84375 -10.71875 C 17.84375 -6.976562 17.203125 -4.195312 15.921875 -2.375 C 14.640625 -0.5625 12.644531 0.34375 9.9375 0.34375 C 7.257812 0.34375 5.273438 -0.539062 3.984375 -2.3125 C 2.691406 -4.09375 2.023438 -6.75 1.984375 -10.28125 L 1.984375 -14.546875 C 1.984375 -18.234375 2.617188 -20.972656 3.890625 -22.765625 C 5.171875 -24.566406 7.175781 -25.46875 9.90625 -25.46875 C 12.601562 -25.46875 14.585938 -24.597656 15.859375 -22.859375 C 17.140625 -21.128906 17.800781 -18.460938 17.84375 -14.859375 Z M 14.640625 -15.078125 C 14.640625 -17.773438 14.257812 -19.742188 13.5 -20.984375 C 12.75 -22.222656 11.550781 -22.84375 9.90625 -22.84375 C 8.269531 -22.84375 7.078125 -22.222656 6.328125 -20.984375 C 5.578125 -19.753906 5.191406 -17.863281 5.171875 -15.3125 L 5.171875 -10.21875 C 5.171875 -7.5 5.5625 -5.492188 6.34375 -4.203125 C 7.132812 -2.910156 8.332031 -2.265625 9.9375 -2.265625 C 11.507812 -2.265625 12.675781 -2.875 13.4375 -4.09375 C 14.207031 -5.3125 14.609375 -7.226562 14.640625 -9.84375 Z M 14.640625 -15.078125 "/></g></g></g><g fill="#ffffff" fill-opacity="1"><g transform="translate(369.515133, 392.255309)"><g><path d="M 2.3125 5 L 0.5 3.765625 C 1.582031 2.253906 2.144531 0.703125 2.1875 -0.890625 L 2.1875 -3.78125 L 5.3125 -3.78125 L 5.3125 -1.28125 C 5.3125 -0.113281 5.023438 1.046875 4.453125 2.203125 C 3.890625 3.367188 3.175781 4.300781 2.3125 5 Z M 2.3125 5 "/></g></g></g><g fill="#ffffff" fill-opacity="1"><g transform="translate(376.447357, 392.255309)"><g><path d="M 12.578125 0 L 9.359375 0 L 9.359375 -21.265625 L 2.9375 -18.90625 L 2.9375 -21.796875 L 12.078125 -25.234375 L 12.578125 -25.234375 Z M 12.578125 0 "/></g></g></g></svg>